<svg width="14" height="14" viewBox="0 0 14 14" fill="none" xmlns="http://www.w3.org/2000/svg">
<path d="M2.94737 0.736842C2.94737 0.541419 3.025 0.354001 3.16318 0.215816C3.30137 0.0776313 3.48879 0 3.68421 0C3.87963 0 4.06705 0.0776313 4.20524 0.215816C4.34342 0.354001 4.42105 0.541419 4.42105 0.736842V1.47368H8.8421V0.736842C8.8421 0.541419 8.91974 0.354001 9.05792 0.215816C9.19611 0.0776313 9.38352 0 9.57895 0C9.77437 0 9.96179 0.0776313 10.1 0.215816C10.2382 0.354001 10.3158 0.541419 10.3158 0.736842V1.47368H11.7895C12.1803 1.47368 12.5552 1.62895 12.8315 1.90532C13.1079 2.18169 13.2632 2.55652 13.2632 2.94737V5.15789H0V2.94737C0 2.55652 0.155263 2.18169 0.431632 1.90532C0.708001 1.62895 1.08284 1.47368 1.47368 1.47368H2.94737V0.736842ZM11.0526 8.10526C11.2481 8.10526 11.4355 8.18289 11.5737 8.32108C11.7118 8.45926 11.7895 8.64668 11.7895 8.8421V10.3158H13.2632C13.4586 10.3158 13.646 10.3934 13.7842 10.5316C13.9224 10.6698 14 10.8572 14 11.0526C14 11.2481 13.9224 11.4355 13.7842 11.5737C13.646 11.7118 13.4586 11.7895 13.2632 11.7895H11.7895V13.2632C11.7895 13.4586 11.7118 13.646 11.5737 13.7842C11.4355 13.9224 11.2481 14 11.0526 14C10.8572 14 10.6698 13.9224 10.5316 13.7842C10.3934 13.646 10.3158 13.4586 10.3158 13.2632V11.7895H8.8421C8.64668 11.7895 8.45926 11.7118 8.32108 11.5737C8.18289 11.4355 8.10526 11.2481 8.10526 11.0526C8.10526 10.8572 8.18289 10.6698 8.32108 10.5316C8.45926 10.3934 8.64668 10.3158 8.8421 10.3158H10.3158V8.8421C10.3158 8.64668 10.3934 8.45926 10.5316 8.32108C10.6698 8.18289 10.8572 8.10526 11.0526 8.10526ZM11.0526 6.63158C10.5929 6.63138 10.1446 6.7745 9.7701 7.04101C9.39556 7.30752 9.11342 7.68417 8.96295 8.11853C8.89317 8.31283 8.78127 8.4893 8.63529 8.63529C8.4893 8.78127 8.31283 8.89317 8.11853 8.96295C7.69523 9.10958 7.32644 9.38131 7.06101 9.74218C6.79557 10.1031 6.646 10.536 6.6321 10.9838C6.6182 11.4316 6.74063 11.873 6.98317 12.2496C7.22571 12.6263 7.57693 12.9203 7.99032 13.0929L8.11853 13.1423C8.20695 13.1733 8.29193 13.2135 8.37347 13.2632H1.47368C1.08284 13.2632 0.708001 13.1079 0.431632 12.8315C0.155263 12.5552 0 12.1803 0 11.7895V6.63158H11.0526Z" fill="currentColor"/>
</svg>
