<svg width="24" height="24" viewBox="0 0 24 24" fill="none" xmlns="http://www.w3.org/2000/svg">
<path d="M9.175 15.9996H3C2.71667 15.9996 2.47934 15.9036 2.288 15.7116C2.09667 15.5196 2.00067 15.2823 2 14.9996C1.99934 14.717 2.09534 14.4796 2.288 14.2876C2.48067 14.0956 2.718 13.9996 3 13.9996H9.175L7.3 12.1246C7.11667 11.9413 7.025 11.7123 7.025 11.4376C7.025 11.163 7.11667 10.9253 7.3 10.7246C7.5 10.5246 7.73767 10.4246 8.013 10.4246C8.28834 10.4246 8.52567 10.5246 8.725 10.7246L12.3 14.2996C12.4 14.3996 12.471 14.508 12.513 14.6246C12.555 14.7413 12.5757 14.8663 12.575 14.9996C12.5743 15.133 12.5537 15.258 12.513 15.3746C12.4723 15.4913 12.4013 15.5996 12.3 15.6996L8.7 19.2996C8.5 19.4996 8.26667 19.5956 8 19.5876C7.73334 19.5796 7.5 19.4753 7.3 19.2746C7.11667 19.0746 7.021 18.8413 7.013 18.5746C7.005 18.308 7.10067 18.0746 7.3 17.8746L9.175 15.9996ZM14.825 9.99965L16.7 11.8746C16.8833 12.058 16.975 12.2873 16.975 12.5626C16.975 12.838 16.8833 13.0753 16.7 13.2746C16.5 13.4746 16.2627 13.5746 15.988 13.5746C15.7133 13.5746 15.4757 13.4746 15.275 13.2746L11.7 9.69965C11.6 9.59965 11.5293 9.49132 11.488 9.37465C11.4467 9.25798 11.4257 9.13298 11.425 8.99965C11.4243 8.86632 11.4453 8.74132 11.488 8.62465C11.5307 8.50798 11.6013 8.39965 11.7 8.29965L15.3 4.69965C15.5 4.49965 15.7333 4.40398 16 4.41265C16.2667 4.42132 16.5 4.52532 16.7 4.72465C16.8833 4.92465 16.9793 5.15798 16.988 5.42465C16.9967 5.69132 16.9007 5.92465 16.7 6.12465L14.825 7.99965H21C21.2833 7.99965 21.521 8.09565 21.713 8.28765C21.905 8.47965 22.0007 8.71698 22 8.99965C21.9993 9.28232 21.9033 9.51998 21.712 9.71265C21.5207 9.90532 21.2833 10.001 21 9.99965H14.825Z" fill="currentColor"/>
</svg>
