<svg width="115" height="113" viewBox="0 0 115 113" fill="none" xmlns="http://www.w3.org/2000/svg">
<path d="M52.5 5C52.5 6.32608 53.0268 7.59785 53.9645 8.53553C54.9021 9.47322 56.1739 10 57.5 10C58.8261 10 60.0978 9.47322 61.0355 8.53553C61.9732 7.59785 62.5 6.32608 62.5 5C62.5 3.67392 61.9732 2.40215 61.0355 1.46447C60.0978 0.526784 58.8261 0 57.5 0C56.1739 0 54.9021 0.526784 53.9645 1.46447C53.0268 2.40215 52.5 3.67392 52.5 5ZM57.45 12.5C55.0008 12.4808 52.6298 13.3611 50.7866 14.9739C48.9433 16.5868 47.7561 18.82 47.45 21.25C47.4213 21.4249 47.4287 21.6039 47.4716 21.7758C47.5146 21.9478 47.5924 22.1092 47.7 22.25C47.8162 22.3895 47.9613 22.502 48.1254 22.5797C48.2895 22.6574 48.4685 22.6985 48.65 22.7H66C66.1815 22.6985 66.3605 22.6574 66.5246 22.5797C66.6887 22.502 66.8338 22.3895 66.95 22.25C67.0999 22.1287 67.2221 21.9767 67.3084 21.8042C67.3946 21.6317 67.4429 21.4427 67.45 21.25C67.1439 18.82 65.9567 16.5868 64.1134 14.9739C62.2702 13.3611 59.8992 12.4808 57.45 12.5ZM100 55C100 56.3261 100.527 57.5979 101.464 58.5355C102.402 59.4732 103.674 60 105 60C106.326 60 107.598 59.4732 108.536 58.5355C109.473 57.5979 110 56.3261 110 55C110 53.6739 109.473 52.4022 108.536 51.4645C107.598 50.5268 106.326 50 105 50C103.674 50 102.402 50.5268 101.464 51.4645C100.527 52.4022 100 53.6739 100 55ZM95.1 71.25C95.034 71.4084 95 71.5784 95 71.75C95 71.9216 95.034 72.0916 95.1 72.25C95.2162 72.3895 95.3613 72.502 95.5254 72.5797C95.6894 72.6574 95.8685 72.6985 96.05 72.7H113.4C113.582 72.6985 113.761 72.6574 113.925 72.5797C114.089 72.502 114.234 72.3895 114.35 72.25C114.464 72.1116 114.549 71.9519 114.601 71.7802C114.652 71.6085 114.669 71.4283 114.65 71.25C114.65 68.5978 113.596 66.0543 111.721 64.1789C109.846 62.3036 107.302 61.25 104.65 61.25C101.998 61.25 99.4543 62.3036 97.5789 64.1789C95.7036 66.0543 94.65 68.5978 94.65 71.25H95.1ZM52.5 95C52.5 96.3261 53.0268 97.5979 53.9645 98.5355C54.9021 99.4732 56.1739 100 57.5 100C58.8261 100 60.0978 99.4732 61.0355 98.5355C61.9732 97.5979 62.5 96.3261 62.5 95C62.5 93.6739 61.9732 92.4022 61.0355 91.4645C60.0978 90.5268 58.8261 90 57.5 90C56.1739 90 54.9021 90.5268 53.9645 91.4645C53.0268 92.4022 52.5 93.6739 52.5 95ZM57.45 102.5C55.0008 102.481 52.6298 103.361 50.7866 104.974C48.9433 106.587 47.7561 108.82 47.45 111.25C47.4213 111.425 47.4287 111.604 47.4716 111.776C47.5146 111.948 47.5924 112.109 47.7 112.25C47.8162 112.39 47.9613 112.502 48.1254 112.58C48.2895 112.657 48.4685 112.698 48.65 112.7H66C66.1815 112.698 66.3605 112.657 66.5246 112.58C66.6887 112.502 66.8338 112.39 66.95 112.25C67.0999 112.129 67.2221 111.977 67.3084 111.804C67.3946 111.632 67.4429 111.443 67.45 111.25C67.1439 108.82 65.9567 106.587 64.1134 104.974C62.2702 103.361 59.8992 102.481 57.45 102.5ZM5 55C5 56.3261 5.52678 57.5979 6.46447 58.5355C7.40215 59.4732 8.67392 60 10 60C11.3261 60 12.5979 59.4732 13.5355 58.5355C14.4732 57.5979 15 56.3261 15 55C15 53.6739 14.4732 52.4022 13.5355 51.4645C12.5979 50.5268 11.3261 50 10 50C8.67392 50 7.40215 50.5268 6.46447 51.4645C5.52678 52.4022 5 53.6739 5 55ZM10 62.5C7.56804 62.5053 5.22134 63.3966 3.3991 65.0071C1.57686 66.6177 0.40399 68.8371 0.0999999 71.25C0.0339869 71.4084 0 71.5784 0 71.75C0 71.9216 0.0339869 72.0916 0.0999999 72.25C0.216175 72.3895 0.361339 72.502 0.525398 72.5797C0.689456 72.6574 0.868473 72.6985 1.05 72.7H18.65C18.8315 72.6985 19.0105 72.6574 19.1746 72.5797C19.3387 72.502 19.4838 72.3895 19.6 72.25C19.7139 72.1116 19.7991 71.9519 19.8506 71.7802C19.9021 71.6085 19.9189 71.4283 19.9 71.25C19.596 68.8371 18.4231 66.6177 16.6009 65.0071C14.7787 63.3966 12.432 62.5053 10 62.5ZM79.15 36.25C79.3421 36.701 79.6626 37.0855 80.0715 37.3558C80.4804 37.6261 80.9598 37.7702 81.45 37.7702C81.9402 37.7702 82.4195 37.6261 82.8285 37.3558C83.2374 37.0855 83.5579 36.701 83.75 36.25L84.3 35.15C84.3755 34.9551 84.5049 34.7858 84.6732 34.6618C84.8414 34.5379 85.0415 34.4644 85.25 34.45C85.4479 34.4062 85.6539 34.4155 85.8471 34.477C86.0403 34.5385 86.2138 34.6499 86.35 34.8C88.6806 37.1348 90.7281 39.7361 92.45 42.55C92.8799 43.315 93.5036 43.9534 94.2584 44.401C95.0132 44.8486 95.8725 45.0897 96.75 45.1C97.6304 45.0909 98.4928 44.8494 99.25 44.4C100.394 43.7404 101.23 42.6553 101.577 41.3813C101.923 40.1074 101.752 38.7481 101.1 37.6C98.227 32.7403 94.5595 28.3968 90.25 24.75C90.0409 24.5685 89.898 24.3227 89.8438 24.0513C89.7895 23.7798 89.8268 23.4979 89.95 23.25L92.35 18.25C92.5564 17.802 92.6285 17.3038 92.5575 16.8157C92.4865 16.3276 92.2755 15.8706 91.95 15.5C91.6146 15.1369 91.1791 14.8813 90.6985 14.7656C90.218 14.6499 89.7139 14.6793 89.25 14.85L75.95 19.85C75.3259 20.0766 74.8147 20.5377 74.5253 21.1353C74.2358 21.7329 74.1909 22.4198 74.4 23.05L79.15 36.25ZM14.85 42.3C14.8985 42.9565 15.2039 43.5673 15.7 44C16.1775 44.4345 16.8046 44.6674 17.45 44.65L31.6 43.75C32.0958 43.7229 32.5716 43.5459 32.9645 43.2423C33.3574 42.9387 33.6487 42.5229 33.8 42.05C33.9678 41.5896 33.9906 41.089 33.8655 40.6152C33.7404 40.1415 33.4732 39.7174 33.1 39.4L29.3 36.25C29.1643 36.1415 29.0538 36.0048 28.9761 35.8494C28.8984 35.6941 28.8554 35.5237 28.85 35.35C28.8523 35.1807 28.8889 35.0137 28.9576 34.8589C29.0264 34.7042 29.1259 34.5651 29.25 34.45C32.2949 31.3092 35.8229 28.6759 39.7 26.65C40.3085 26.3705 40.8546 25.9717 41.306 25.4771C41.7574 24.9826 42.1048 24.4024 42.3278 23.771C42.5507 23.1396 42.6445 22.4699 42.6037 21.8016C42.5629 21.1332 42.3882 20.4799 42.0901 19.8803C41.792 19.2808 41.3765 18.7472 40.8683 18.3113C40.3601 17.8753 39.7694 17.5459 39.1315 17.3426C38.4935 17.1392 37.8212 17.0661 37.1545 17.1275C36.4877 17.1889 35.8401 17.3836 35.25 17.7C30.17 20.2419 25.5552 23.6227 21.6 27.7C21.3689 27.9144 21.0652 28.0335 20.75 28.0335C20.4347 28.0335 20.1311 27.9144 19.9 27.7L18.1 26.25C17.7273 25.9269 17.2673 25.7212 16.778 25.6589C16.2886 25.5966 15.7918 25.6805 15.35 25.9C14.9096 26.1218 14.5429 26.4666 14.2944 26.8926C14.0459 27.3185 13.9263 27.8074 13.95 28.3L14.85 42.3ZM35.95 88.3C35.8637 87.7876 35.6199 87.3149 35.2525 86.9475C34.8851 86.5801 34.4124 86.3363 33.9 86.25C33.4055 86.1786 32.9011 86.2601 32.4543 86.4835C32.0074 86.7069 31.6396 87.0616 31.4 87.5L30.25 89.4C30.1545 89.561 30.024 89.6985 29.8683 89.8024C29.7125 89.9062 29.5354 89.9738 29.35 90C29.16 90.0225 28.9674 90.0028 28.7859 89.9423C28.6044 89.8818 28.4385 89.782 28.3 89.65C25.6405 86.799 23.4013 83.5833 21.65 80.1C21.0594 78.9136 20.022 78.0102 18.7657 77.5883C17.5094 77.1664 16.1369 77.2606 14.95 77.85C13.7636 78.4406 12.8602 79.478 12.4383 80.7343C12.0164 81.9906 12.1105 83.3631 12.7 84.55C15.4035 89.9759 19.0619 94.8706 23.5 99C23.6744 99.2207 23.7692 99.4937 23.7692 99.775C23.7692 100.056 23.6744 100.329 23.5 100.55L21.05 104.75C20.7812 105.158 20.6379 105.636 20.6379 106.125C20.6379 106.614 20.7812 107.092 21.05 107.5C21.3499 107.887 21.7531 108.182 22.2131 108.35C22.673 108.518 23.1711 108.553 23.65 108.45L37.35 104.85C37.6687 104.768 37.9683 104.625 38.2313 104.427C38.4944 104.23 38.716 103.982 38.8832 103.699C39.0504 103.415 39.1601 103.102 39.2058 102.776C39.2516 102.45 39.2327 102.118 39.15 101.8L35.95 88.3ZM100.1 82.45C100.052 82.1264 99.9388 81.8157 99.7684 81.5364C99.5979 81.257 99.3732 81.0147 99.1076 80.8236C98.8419 80.6325 98.5407 80.4966 98.2216 80.4238C97.9026 80.3511 97.5722 80.343 97.25 80.4L83.25 82.55C82.7619 82.6165 82.3052 82.8287 81.9395 83.1587C81.5738 83.4887 81.3161 83.9213 81.2 84.4C81.0847 84.8788 81.1133 85.3809 81.2823 85.8435C81.4513 86.306 81.7532 86.7084 82.15 87L85.25 89.25C85.5211 89.4996 85.6977 89.8352 85.75 90.2C85.7476 90.5571 85.6037 90.8987 85.35 91.15C82.4086 94.0521 79.0352 96.4809 75.35 98.35C74.3634 98.8538 73.572 99.671 73.1001 100.673C72.6283 101.676 72.5026 102.806 72.7429 103.888C72.9833 104.969 73.5759 105.94 74.4279 106.648C75.2798 107.356 76.3428 107.761 77.45 107.8C78.2287 107.811 78.9992 107.64 79.7 107.3C84.9345 104.671 89.6718 101.152 93.7 96.9C93.9281 96.6996 94.2214 96.5891 94.525 96.5891C94.8286 96.5891 95.1219 96.6996 95.35 96.9L98.25 99C98.669 99.3145 99.1762 99.4894 99.7 99.5C100.162 99.4894 100.612 99.3509 101 99.1C101.55 98.8861 102.001 98.4773 102.269 97.9517C102.536 97.426 102.601 96.8202 102.45 96.25L100.1 82.45ZM35.15 73.8C34.971 74.315 34.9184 74.8654 34.9967 75.4049C35.075 75.9444 35.2819 76.4572 35.6 76.9C35.9126 77.3367 36.3256 77.6918 36.8042 77.9355C37.2828 78.1792 37.813 78.3042 38.35 78.3H76.6C77.137 78.3042 77.6672 78.1792 78.1458 77.9355C78.6244 77.6918 79.0374 77.3367 79.35 76.9C79.668 76.4572 79.8749 75.9444 79.9533 75.4049C80.0316 74.8654 79.979 74.315 79.8 73.8C78.1813 69.1699 75.1631 65.1577 71.1632 62.3188C67.1634 59.4799 62.3799 57.9549 57.475 57.9549C52.5701 57.9549 47.7866 59.4799 43.7868 62.3188C39.7869 65.1577 36.7687 69.1699 35.15 73.8ZM47.3 44.35C47.3 47.0552 48.3746 49.6496 50.2875 51.5625C52.2004 53.4754 54.7948 54.55 57.5 54.55C60.2052 54.55 62.7996 53.4754 64.7125 51.5625C66.6254 49.6496 67.7 47.0552 67.7 44.35C67.7 41.6448 66.6254 39.0504 64.7125 37.1375C62.7996 35.2246 60.2052 34.15 57.5 34.15C54.7948 34.15 52.2004 35.2246 50.2875 37.1375C48.3746 39.0504 47.3 41.6448 47.3 44.35Z" fill="currentColor"/>
</svg>
