<svg width="23" height="20" viewBox="0 0 23 20" fill="none" xmlns="http://www.w3.org/2000/svg">
<g clip-path="url(#clip0_884_29272)">
<path d="M8.30556 3.125C8.30556 2.08984 9.16406 1.25 10.2222 1.25H12.7778C13.8359 1.25 14.6944 2.08984 14.6944 3.125V5.625C14.6944 6.66016 13.8359 7.5 12.7778 7.5H12.4583V9.0625H18.5278C19.7616 9.0625 20.7639 10.043 20.7639 11.25V12.5H21.0833C22.1415 12.5 23 13.3398 23 14.375V16.875C23 17.9102 22.1415 18.75 21.0833 18.75H18.5278C17.4696 18.75 16.6111 17.9102 16.6111 16.875V14.375C16.6111 13.3398 17.4696 12.5 18.5278 12.5H18.8472V11.25C18.8472 11.0781 18.7035 10.9375 18.5278 10.9375H12.4583V12.5H12.7778C13.8359 12.5 14.6944 13.3398 14.6944 14.375V16.875C14.6944 17.9102 13.8359 18.75 12.7778 18.75H10.2222C9.16406 18.75 8.30556 17.9102 8.30556 16.875V14.375C8.30556 13.3398 9.16406 12.5 10.2222 12.5H10.5417V10.9375H4.47222C4.29653 10.9375 4.15278 11.0781 4.15278 11.25V12.5H4.47222C5.53038 12.5 6.38889 13.3398 6.38889 14.375V16.875C6.38889 17.9102 5.53038 18.75 4.47222 18.75H1.91667C0.858507 18.75 0 17.9102 0 16.875V14.375C0 13.3398 0.858507 12.5 1.91667 12.5H2.23611V11.25C2.23611 10.043 3.23837 9.0625 4.47222 9.0625H10.5417V7.5H10.2222C9.16406 7.5 8.30556 6.66016 8.30556 5.625V3.125Z" fill="currentColor"/>
</g>
<defs>
<clipPath id="clip0_884_29272">
<rect width="23" height="20" fill="white"/>
</clipPath>
</defs>
</svg>
