<svg width="21" height="20" viewBox="0 0 21 20" fill="none" xmlns="http://www.w3.org/2000/svg">
<path d="M15.5875 10.3474C17.621 10.3926 20.1199 10.092 20.1259 9.65179C20.132 9.21154 17.654 8.79425 15.6154 8.75516C15.4294 8.75475 15.2484 8.74824 15.0735 8.74684C14.891 8.53189 14.5076 8.08671 14.0178 7.52131C14.0238 7.52641 14.036 7.5366 14.0421 7.5417L14.5901 7.55512C14.6582 7.56035 14.7143 7.49337 14.7074 7.41506L14.7167 6.88432C14.7209 6.80503 14.6702 6.74187 14.597 6.74273L14.049 6.72931C14.049 6.72931 13.9941 6.74546 13.9676 6.76472L13.3291 6.74805C12.9143 6.26619 12.462 5.74256 12.0157 5.22403L12.5526 5.23844C12.6207 5.24368 12.6767 5.17669 12.6698 5.09839L12.6791 4.56765C12.6834 4.48835 12.6327 4.4252 12.5594 4.42605L12.0114 4.41263C12.0114 4.41263 11.9565 4.42878 11.93 4.44804L11.3139 4.42939C10.177 3.11522 9.21753 2.02209 9.1708 2.00368C9.05398 1.95767 8.24866 1.96707 8.24866 1.96707C8.0565 1.96156 7.90598 1.98055 7.90187 1.99782C7.90386 2.0202 8.11428 2.041 8.29526 2.0475L9.97362 4.95413C9.8221 4.96193 9.71222 4.99422 9.71009 5.03387C9.70896 5.0847 9.86445 5.12165 10.0505 5.12207L10.0729 5.12008L10.4 5.69427C10.2597 5.70108 10.1498 5.73337 10.1477 5.77302C10.1466 5.82386 10.3021 5.86081 10.4881 5.86122L10.793 6.37537L10.8969 6.78333C10.7281 6.78702 10.5897 6.8162 10.5876 6.85585C10.5865 6.90669 10.742 6.94364 10.928 6.94405L10.9341 6.94915L11.1459 7.74779C10.9771 7.75148 10.8387 7.78066 10.8427 7.82541C10.8416 7.87625 10.9971 7.91319 11.1831 7.91361L11.3726 8.65221C10.0071 8.63799 9.46621 8.64086 8.45556 8.62337C7.43883 8.60078 6.45652 8.64843 5.62969 8.73302C5.0029 8.02192 3.78287 6.59674 3.78287 6.59674L3.21361 6.53447L3.75513 9.01763C3.57303 9.06196 3.42958 9.09723 3.33188 9.13972C2.91089 9.16014 2.64849 9.18904 2.64637 9.22869C2.64425 9.26834 2.89631 9.31364 3.30499 9.34505C3.40454 9.38696 3.56002 9.42391 3.75615 9.47416L3.09686 11.9567L3.66937 11.9285C3.66937 11.9285 5.03917 10.4653 5.67408 9.80582C6.47303 9.91537 7.39602 10.0252 8.37905 10.1128C9.63878 10.142 10.1939 10.1717 11.3529 10.2099L11.1297 10.9343C10.9324 10.9349 10.7829 10.9651 10.7817 11.0159C10.7796 11.0556 10.9127 11.0945 11.0886 11.1071L10.8438 11.9068L10.8377 11.9017C10.6405 11.9022 10.4858 11.9385 10.4898 11.9833C10.4877 12.0229 10.6269 12.0669 10.7967 12.0744L10.6799 12.4738L10.3585 12.9814C10.1663 12.9759 10.0117 13.0122 10.0105 13.063C10.0084 13.1027 10.1131 13.1385 10.2605 13.148L9.90439 13.7095L9.8922 13.6993C9.69495 13.6999 9.54032 13.7361 9.53919 13.787C9.53707 13.8266 9.6529 13.8614 9.80031 13.8709L7.99333 16.6976C7.81335 16.7023 7.59981 16.71 7.5957 16.7272C7.59769 16.7496 7.74609 16.7703 7.93825 16.7758C7.93825 16.7758 8.74852 16.8223 8.85741 16.7788C8.90117 16.7637 9.90706 15.7105 11.1035 14.4544L11.7197 14.473C11.7197 14.473 11.7684 14.5138 11.7969 14.5169L12.3449 14.5303C12.413 14.5356 12.4691 14.4686 12.4621 14.3903L12.4714 13.8595C12.4757 13.7802 12.425 13.7171 12.3518 13.7179L11.8149 13.7035C12.2838 13.2053 12.7526 12.7071 13.1959 12.2394L13.8344 12.2561C13.8344 12.2561 13.8831 12.2968 13.9116 12.2999L14.4596 12.3134C14.5277 12.3186 14.5838 12.2516 14.5768 12.1733L14.5862 11.6426C14.5904 11.5633 14.5397 11.5001 14.4665 11.501L13.9185 11.4876C13.9185 11.4876 13.9083 11.4997 13.8859 11.5017C14.3965 10.966 14.793 10.5419 14.9887 10.3328C15.1635 10.3342 15.3445 10.3407 15.5367 10.3462L15.5875 10.3474Z" fill="currentColor"/>
</svg>
