<svg width="24" height="24" viewBox="0 0 24 24" fill="none" xmlns="http://www.w3.org/2000/svg">
<path d="M12 1C9.24211 1 7 3.24447 7 6.00527C7 8.71338 9.11579 10.9052 11.8737 11C11.9579 10.9895 12.0421 10.9895 12.1053 11C12.1263 11 12.1368 11 12.1579 11C12.1684 11 12.1684 11 12.1789 11C14.8737 10.9052 16.9895 8.71338 17 6.00527C17 3.24447 14.7579 1 12 1Z" fill="currentColor"/>
<path d="M17.7727 14.5089C14.6023 12.497 9.43182 12.497 6.23864 14.5089C4.79545 15.4283 4 16.6723 4 18.0027C4 19.3332 4.79545 20.5663 6.22727 21.4749C7.81818 22.4916 9.90909 23 12 23C14.0909 23 16.1818 22.4916 17.7727 21.4749C19.2045 20.5554 20 19.3223 20 17.9811C19.9886 16.6506 19.2045 15.4175 17.7727 14.5089Z" fill="currentColor"/>
</svg>
