<svg id="Layer_1" data-name="Layer 1" xmlns="http://www.w3.org/2000/svg" viewBox="0 0 179.95 56.52"><defs><style>.cls-1{fill:#fff;}</style></defs><circle class="cls-1" cx="16.2" cy="8.1" r="8.1"/><path class="cls-1" d="M0,24.12v32.4H32.4V24.12Zm16.2,24.3a8.1,8.1,0,1,1,8.1-8.1A8.1,8.1,0,0,1,16.2,48.42Z"/><path class="cls-1" d="M54.38,41.5l-6.79-7.41c-1.11-1.22-2.32-2.62-3.27-3.79l0,0c0,1.22.08,2.51.08,3.62v7.36h-4V24.06H43.7l5.95,6.46c.84.92,2.08,2.27,2.86,3.3l.06,0c-.06-1-.11-2.14-.11-3.22V24.06h4.06V41.5Z"/><path class="cls-1" d="M67.58,41.69c-4.11,0-7.47-2.41-7.47-6.57V24.06H64.3V34.82a3.33,3.33,0,0,0,6.66,0V24.06h4.11V35.12C75.07,39.25,71.71,41.69,67.58,41.69Z"/><path class="cls-1" d="M86.59,27.49V41.31h-4.2V27.49H77.45V24.06H91.54v3.43Z"/><path class="cls-1" d="M103.7,41.31l-4.62-6.79H98v6.79h-4V24.06h6.3c3,0,5.57,2,5.57,5.21a4.77,4.77,0,0,1-2.65,4.33l5.49,7.71ZM99.62,27.44H98V31.3h1.65a2,2,0,0,0,2.16-1.92A2,2,0,0,0,99.62,27.44Z"/><path class="cls-1" d="M110.33,41.31V24.06h4.19V41.31Z"/><path class="cls-1" d="M126.31,27.49V41.31h-4.19V27.49h-5V24.06h14.09v3.43Z"/><path class="cls-1" d="M133.94,41.31V24.06h4.19V41.31Z"/><path class="cls-1" d="M150.76,41.72A9.05,9.05,0,1,1,160,32.66,9.05,9.05,0,0,1,150.76,41.72Zm0-14.34a5.12,5.12,0,0,0-5,5.33,5,5,0,1,0,10.06,0A5.14,5.14,0,0,0,150.76,27.38Z"/><path class="cls-1" d="M177.18,41.5l-6.79-7.41c-1.11-1.22-2.32-2.62-3.27-3.79l-.06,0c.06,1.22.09,2.51.09,3.62v7.36h-4V24.06h3.38l5.95,6.46c.83.92,2.08,2.27,2.86,3.3l.06,0c-.06-1-.11-2.14-.11-3.22V24.06h4.06V41.5Z"/><path class="cls-1" d="M40.83,55.87V45.11h.54V55.87Z"/><path class="cls-1" d="M41.44,55.93h-.67V45h.67Zm-.54-.12h.41V45.17H40.9Z"/><path class="cls-1" d="M41.44,55.93h-.67V45h.67Zm-.54-.12h.41V45.17H40.9Z"/><path class="cls-1" d="M41.5,56h-.79V45h.79Zm-.67-.12h.54v0Zm.13-.13h.29V45.23H41Z"/><path class="cls-1" d="M55.11,56l-5.52-6.54c-1-1.13-2.07-2.48-2.8-3.41l0,0c0,1,0,2.09,0,3.27v6.58h-.52V45.11h.39l5.43,6.47c.84,1,1.87,2.23,2.65,3.23l0,0c0-1.11,0-2.11,0-3.17V45.11h.52V56Z"/><path class="cls-1" d="M55.32,56h-.24l0,0-5.52-6.54c-1-1.16-2-2.44-2.72-3.31,0,1,0,2,0,3.15v6.64h-.64V45h.47l0,0,5.44,6.47c1.1,1.31,1.94,2.33,2.56,3.12v-.3c0-.94,0-1.82,0-2.74V45h.65Zm-.18-.13h.06V45.17h-.4v6.45c0,.92,0,1.8,0,2.74v.47l-.11.05,0,0C54.06,54,53.19,53,52,51.62l-5.41-6.45h-.3V55.81h.4V49.29c0-1.16,0-2.26,0-3.27v0l.12-.06,0,0c.68.87,1.78,2.21,2.8,3.41Z"/><path class="cls-1" d="M55.32,56h-.24l0,0-5.52-6.54c-1-1.16-2-2.44-2.72-3.31,0,1,0,2,0,3.15v6.64h-.64V45h.47l0,0,5.44,6.47c1.1,1.31,2,2.33,2.56,3.12v-.3c0-.94,0-1.82,0-2.74V45h.65Zm-.18-.13h.06V45.17h-.4v6.45c0,.92,0,1.8,0,2.73v.48l-.11.05,0,0C54.06,54,53.2,53,52,51.62l-5.41-6.45h-.3V55.81h.4V49.29c0-1.16,0-2.26,0-3.27v0l.12-.06,0,0c.67.86,1.77,2.2,2.8,3.41Z"/><path class="cls-1" d="M55.38,56.08h-.33l0,0L49.5,49.49c-.94-1.1-1.92-2.29-2.61-3.16,0,.93,0,1.92,0,3V56h-.78V45h.57l0,.05,5.43,6.47c1,1.23,1.85,2.21,2.46,3v-.12c0-.89,0-1.8,0-2.74V45h.77ZM55.11,56h.15v0h-.15l0,0-5.5-6.52c-.83-1-1.71-2-2.37-2.86.67.83,1.54,1.88,2.37,2.86Zm-8.84-.08h.52v0Zm.56-10,.06.08c.67.86,1.77,2.2,2.8,3.41l5.44,6.46V45.23h-.27v6.39c0,.93,0,1.85,0,2.73v.52l-.2.09-.06-.08C54,54.09,53.16,53,52,51.66L46.6,45.23h-.21V55.74h.28V49.29c0-1.16,0-2.26,0-3.27v-.08Zm7.84,8.88.07.09Zm.07-3.1c0,.94,0,1.85,0,2.74v0C54.75,53.47,54.74,52.55,54.74,51.62Zm-2.25.44c.83,1,1.49,1.79,2,2.44C54,53.84,53.31,53,52.49,52.06Zm-5.7-2.85v0Zm0,0h0Zm0,0Zm0,0h0Zm0,0Zm0,0h0Zm0,0h0Zm0,0v0Zm0,0v0Zm0,0v0Zm0-.15Zm0,0Zm0-2.84.05.06L46.79,46Zm0,0h0v0Zm-.1-.91h0Z"/><path class="cls-1" d="M63.41,45.6V55.87h-.54V45.6h-4v-.49h8.52v.49Z"/><path class="cls-1" d="M63.47,55.93h-.66V45.66h-4V45h8.64v.62h-4Zm-.54-.12h.42V45.53h4v-.36H59v.36h4Z"/><path class="cls-1" d="M63.47,55.93h-.66V45.66h-4V45h8.64v.62h-4Zm-.54-.12h.42V45.53h4v-.36H59v.36h4Z"/><path class="cls-1" d="M63.54,56h-.79V45.72h-4V45h8.76v.74h-4Zm-.67-.12h.54V45.6h4v0h-4V55.87Zm.13-.13h.29V45.47h4v-.24H59v.24h4ZM58.89,45.6h0Z"/><path class="cls-1" d="M71,55.87V45.11h5.38v.49H71.58v4.6h3.9v.49h-3.9v4.69H77v.49Z"/><path class="cls-1" d="M77.09,55.93H71V45h5.51v.62H71.64v4.48h3.9v.61h-3.9v4.57h5.45Zm-6-.12H77v-.37H71.52V50.63h3.9v-.37h-3.9V45.53h4.84v-.36H71.1Z"/><path class="cls-1" d="M77.09,55.93H71V45h5.51v.62H71.64v4.48h3.9v.61h-3.9v4.57h5.45Zm-6-.12H77v-.37H71.52V50.63h3.9v-.37h-3.9V45.53h4.84v-.36H71.1Z"/><path class="cls-1" d="M77.15,56H70.92V45h5.63v.74H71.71v4.35H75.6v.75H71.71v4.43h5.44ZM71,55.87h6v0Zm.13-.13H76.9V55.5H71.46V50.57h3.89v-.25H71.46V45.47H76.3v-.24H71.17Zm.41-.36V50.69h3.9v0h-3.9Zm0-5.18V45.6h4.84v0H71.58Z"/><path class="cls-1" d="M87.24,55.87l-3.81-5.18H81.22v5.18h-.54V45.11h2.65a2.85,2.85,0,0,1,3,2.8A2.7,2.7,0,0,1,84,50.62l3.87,5.25Zm-4-10.27H81.22v4.6h2.12a2.34,2.34,0,0,0,2.5-2.29A2.38,2.38,0,0,0,83.28,45.6Z"/><path class="cls-1" d="M88,55.93h-.81l0,0L83.4,50.75H81.28v5.18h-.66V45h2.71a2.9,2.9,0,0,1,3.11,2.87,2.74,2.74,0,0,1-2.3,2.75Zm-.75-.12h.5l-3.85-5.23.1,0a2.63,2.63,0,0,0,2.3-2.65,2.78,2.78,0,0,0-3-2.74H80.74V55.81h.41V50.63h2.31l0,0Zm-3.93-5.55H81.15V45.53h2.13a2.45,2.45,0,0,1,2.62,2.38A2.41,2.41,0,0,1,83.34,50.26Zm-2.06-.12h2.06a2.27,2.27,0,0,0,2.44-2.23,2.3,2.3,0,0,0-2.5-2.25h-2Z"/><path class="cls-1" d="M88,55.93h-.81l0,0L83.4,50.75H81.28v5.18h-.66V45h2.71a2.9,2.9,0,0,1,3.11,2.87,2.74,2.74,0,0,1-2.3,2.75Zm-.75-.12h.5l-3.85-5.23.1,0a2.63,2.63,0,0,0,2.3-2.65,2.78,2.78,0,0,0-3-2.74H80.74V55.81h.41V50.63h2.31l0,0Zm-3.93-5.55H81.15V45.53h2.13a2.45,2.45,0,0,1,2.62,2.38A2.41,2.41,0,0,1,83.34,50.26Zm-2.06-.12h2.06a2.27,2.27,0,0,0,2.44-2.23,2.3,2.3,0,0,0-2.5-2.25h-2Z"/><path class="cls-1" d="M88.15,56h-1l0-.05-3.78-5.12h-2V56h-.79V45h2.78a3,3,0,0,1,3.17,2.93,2.8,2.8,0,0,1-2.25,2.79Zm-.91-.12h.66L84,50.62l.09,0a2.22,2.22,0,0,0,.39-.1,3.51,3.51,0,0,1-.49.12h0l3.87,5.25h-.66l0,0-3.79-5.15H81.22v5.18h0V50.69h2.21l0,0Zm.06-.13h.35l-3.84-5.21.2,0a2.57,2.57,0,0,0,2.24-2.59,2.72,2.72,0,0,0-2.92-2.68H80.8V55.74h.29V50.57h2.4l0,0Zm-.92-7.83Zm-3,2.41H81.09V45.47h2.19A2.52,2.52,0,0,1,86,47.91,2.47,2.47,0,0,1,83.34,50.32Zm-2.12-.12h0Zm.12-.13h2a2.2,2.2,0,0,0,2.38-2.16,2.25,2.25,0,0,0-2.44-2.19H81.34Z"/><path class="cls-1" d="M99.93,56l-5.52-6.54c-1-1.13-2.07-2.48-2.8-3.41l0,0c0,1,0,2.09,0,3.27v6.58h-.52V45.11h.39l5.43,6.47c.84,1,1.87,2.23,2.65,3.23l0,0c0-1.11,0-2.11,0-3.17V45.11h.52V56Z"/><path class="cls-1" d="M100.14,56H99.9l0,0-5.51-6.54c-1-1.19-2-2.44-2.72-3.31,0,1,0,2,0,3.15v6.64H91V45h.48l0,0L97,51.54c1.08,1.28,2,2.33,2.57,3.13v-.31c0-.93,0-1.82,0-2.74V45h.64Zm-.18-.13H100V45.17h-.4v6.45c0,.92,0,1.8,0,2.74v.47l-.12.05,0,0C98.88,54,98,53,96.86,51.62l-5.41-6.45h-.3V55.81h.4V49.29c0-1.16,0-2.26,0-3.27v0l.11-.06,0,0c.68.87,1.75,2.17,2.8,3.41Z"/><path class="cls-1" d="M100.14,56H99.9l0,0-5.51-6.54c-1-1.19-2-2.44-2.72-3.31,0,1,0,2,0,3.15v6.64H91V45h.48l0,0L97,51.54c1.11,1.31,2,2.34,2.57,3.13v-.31c0-.93,0-1.82,0-2.74V45h.64Zm-.18-.13H100V45.17h-.4v6.45c0,.92,0,1.81,0,2.74v.47l-.12.05,0,0C98.88,54,98,53,96.86,51.62l-5.41-6.45h-.3V55.81h.4V49.29c0-1.16,0-2.26,0-3.27v0l.11-.06,0,0c.68.87,1.75,2.18,2.8,3.41Z"/><path class="cls-1" d="M100.21,56.08h-.34l0,0-5.51-6.54c-.94-1.1-1.92-2.29-2.61-3.16,0,.92,0,1.91,0,3V56H91V45h.57l0,.05L97,51.5c1,1.23,1.84,2.21,2.45,3v-.26c0-.89,0-1.72,0-2.6V45h.78ZM99.93,56h.15v0h-.15l0,0-5.5-6.52-.48-.57.48.57Zm-8.84-.08h.52v0Zm.56-10,.06.08c.68.87,1.75,2.18,2.8,3.41L100,55.79V45.23h-.28v6.39c0,.87,0,1.71,0,2.6v.65l-.2.09-.06-.08c-.62-.79-1.49-1.85-2.65-3.22l-5.39-6.43h-.2V55.74h.27V49.29c0-1.16,0-2.26,0-3.27v-.08Zm7.91,6.77c0,.53,0,1.06,0,1.61v0C99.58,53.67,99.57,53.15,99.56,52.61Zm0,0Zm0,0h0Zm0,0Zm0,0Zm0,0Zm0,0Zm0-.33Zm0,0Zm0-.12v0Zm0,0v0Zm0,0v0Zm0,0h0Zm0-.09Zm0,0Zm0-.15v0Zm0,0v0Zm0,0Zm0-.07Zm-8-2.48v0Zm0,0h0Zm0,0Zm0,0h0Zm0,0Zm0-3.07.08.1,0,.06L91.61,46Zm0,0Zm-.1-.91.06.07Zm0,0"/><path class="cls-1" d="M112.22,55.87l-1.29-3.31h-5l-1.29,3.31h-.55L108.35,45h.22l4.22,10.92Zm-3-7.88c-.25-.66-.49-1.35-.71-2.06h0c-.22.71-.46,1.4-.71,2l-1.59,4.1h4.61Z"/><path class="cls-1" d="M112.88,55.93h-.71l-1.28-3.31H106l-1.28,3.31H104l0-.08,4.25-11h.31v0Zm-.62-.12h.44L108.53,45h-.13l-4.19,10.79h.42l1.28-3.31H111Zm-1.42-3.67h-4.79l0-.09,1.59-4.1c.24-.6.47-1.28.71-2v0h.13v0c.22.72.46,1.41.71,2.06ZM106.23,52h4.43l-1.54-4c-.23-.61-.46-1.25-.67-1.92-.22.7-.44,1.34-.66,1.91Z"/><path class="cls-1" d="M112.88,55.93h-.71l-1.28-3.31H106l-1.28,3.31H104l0-.08,4.25-11h.31v0Zm-.62-.12h.44L108.53,45h-.13l-4.19,10.79h.42l1.28-3.31H111Zm-1.42-3.67h-4.79l0-.09,1.59-4.1c.24-.59.47-1.28.71-2v0h.13v0c.22.72.46,1.41.71,2.06ZM106.23,52h4.43l-1.54-4c-.23-.6-.46-1.25-.67-1.92-.22.7-.44,1.35-.66,1.91Z"/><path class="cls-1" d="M113,56h-.84l-1.28-3.3H106L104.76,56h-.82l.06-.17,4.27-11h.39l0,.08Zm-.75-.12h0l-1.29-3.31h-5l-1.28,3.31h0L106,52.56h5Zm.08-.13h.31l-4.12-10.66h0L104.3,55.74h.29l1.28-3.3H111Zm-4-10.79-2.71,7Zm.22,0,0,0,1.55,4Zm2.36,7.25h-5L106,52l1.58-4.1c.23-.59.47-1.27.71-2l0-.09h.21l0,.09c.22.72.46,1.41.71,2.05Zm-4.79-.13h0Zm.18-.12h4.25L109.06,48c-.21-.55-.41-1.14-.61-1.74-.2.63-.4,1.21-.6,1.72Zm2.12-6h0c-.24.77-.48,1.46-.71,2l-1.4,3.62,1.4-3.62c.22-.56.44-1.2.66-1.9l0-.14Zm.13.31c.19.61.4,1.2.61,1.75l1,2.52-1-2.52C109,47.44,108.76,46.85,108.57,46.24Zm0,0h0Zm-.1-.3,0,.11,0-.11Z"/><path class="cls-1" d="M120.25,45.6V55.87h-.54V45.6h-4v-.49h8.52v.49Z"/><path class="cls-1" d="M120.31,55.93h-.66V45.66h-4V45h8.64v.62h-4Zm-.54-.12h.42V45.53h4v-.36h-8.4v.36h4Z"/><path class="cls-1" d="M120.31,55.93h-.66V45.66h-4V45h8.64v.62h-4Zm-.54-.12h.42V45.53h4v-.36h-8.4v.36h4Z"/><path class="cls-1" d="M120.38,56h-.8V45.72h-4V45h8.77v.74h-4Zm-.67-.12h.54V45.6h4v0h-4V55.87Zm.12-.13h.3V45.47h4v-.24h-8.27v.24h4Zm-4.1-10.14h0Z"/><path class="cls-1" d="M128.05,55.87V45.11h.54V55.87Z"/><path class="cls-1" d="M128.65,55.93H128V45h.66Zm-.54-.12h.42V45.17h-.42Z"/><path class="cls-1" d="M128.65,55.93H128V45h.66Zm-.54-.12h.42V45.17h-.42Z"/><path class="cls-1" d="M128.71,56h-.79V45h.79Zm-.66-.12h.54v0Zm.12-.13h.29V45.23h-.29Z"/><path class="cls-1" d="M138.54,56a5.54,5.54,0,1,1,5.55-5.53A5.45,5.45,0,0,1,138.54,56Zm0-10.58a5,5,0,1,0,5,5.05A4.95,4.95,0,0,0,138.54,45.44Z"/><path class="cls-1" d="M138.54,56.08a5.61,5.61,0,1,1,5.61-5.59A5.47,5.47,0,0,1,138.54,56.08Zm0-11.08a5.44,5.44,0,0,0-5.5,5.49,5.5,5.5,0,1,0,5.5-5.49Zm0,10.59a5.11,5.11,0,0,1,0-10.21,5.11,5.11,0,0,1,0,10.21Zm0-10.08a5,5,0,1,0,4.93,5A4.85,4.85,0,0,0,138.54,45.51Z"/><path class="cls-1" d="M138.54,56.08a5.61,5.61,0,1,1,5.61-5.59A5.47,5.47,0,0,1,138.54,56.08Zm0-11.08a5.44,5.44,0,0,0-5.5,5.49,5.5,5.5,0,1,0,5.5-5.49Zm0,10.59a5.11,5.11,0,0,1,0-10.21,5.11,5.11,0,0,1,0,10.21Zm0-10.08a5,5,0,1,0,4.93,5A4.85,4.85,0,0,0,138.54,45.51Z"/><path class="cls-1" d="M138.54,56.15a5.67,5.67,0,1,1,5.68-5.66A5.55,5.55,0,0,1,138.54,56.15Zm0-.13a5.42,5.42,0,0,0,5.55-5.53A5.42,5.42,0,0,1,138.54,56Zm0-11a5.38,5.38,0,0,0-5.44,5.43,5.44,5.44,0,1,0,5.44-5.43Zm0,10.6a5.17,5.17,0,0,1,0-10.34,5.17,5.17,0,0,1,0,10.34Zm0-.13a4.91,4.91,0,0,0,5-5A4.91,4.91,0,0,1,138.54,55.53Zm0-10a4.92,4.92,0,1,0,4.87,4.92A4.79,4.79,0,0,0,138.54,45.57Z"/><path class="cls-1" d="M157.16,56l-5.52-6.54c-1-1.13-2.07-2.48-2.8-3.41l0,0c0,1,0,2.09,0,3.27v6.58h-.52V45.11h.38l5.44,6.47c.84,1,1.87,2.23,2.64,3.23l0,0c0-1.11,0-2.11,0-3.17V45.11h.53V56Z"/><path class="cls-1" d="M157.37,56h-.24l0,0-5.52-6.54c-1-1.16-2-2.44-2.72-3.31,0,1,0,2,0,3.15v6.64h-.65V45h.48l0,0,5.43,6.47c1.09,1.28,1.95,2.33,2.57,3.12v0c0-1,0-2,0-3V45h.65Zm-.19-.13h.06V45.17h-.39v6.45c0,1,0,2,0,3v.2l-.11.05,0,0c-.63-.8-1.52-1.88-2.65-3.22l-5.41-6.45h-.3V55.81h.4V49.29c0-1.16,0-2.26,0-3.27v0l.12-.06,0,0c.68.87,1.78,2.21,2.8,3.41Z"/><path class="cls-1" d="M157.37,56h-.24l0,0-5.52-6.54c-1-1.14-2-2.42-2.72-3.31,0,1,0,2,0,3.15v6.64h-.65V45h.48l0,0,5.43,6.47c1.11,1.31,1.95,2.33,2.57,3.13v0c0-1,0-2,0-3V45h.65Zm-.19-.13h.06V45.17h-.39v6.45c0,1,0,2,0,3v.2l-.11.05,0,0c-.64-.81-1.5-1.86-2.65-3.22l-5.42-6.45h-.29V55.81h.4V49.29c0-1.16,0-2.26,0-3.27v0l.12-.06,0,0c.69.88,1.79,2.22,2.8,3.41Z"/><path class="cls-1" d="M157.43,56.08h-.33l0,0-5.52-6.54c-.9-1.06-1.9-2.28-2.6-3.16,0,.92,0,1.91,0,3V56h-.77V45h.57l0,.05,5.43,6.47c1,1.23,1.85,2.2,2.46,3h0c0-1,0-1.9,0-2.86V45h.77Zm-.27-.13h.15v0h-.15l0,0-5.5-6.52-1.64-2,1.64,2Zm-8.84-.08h.52v0Zm.56-10,.06.08c.68.88,1.78,2.21,2.79,3.41l5.45,6.46V45.23h-.27v6.39c0,1,0,1.88,0,2.85v.4l-.2.09-.06-.08c-.65-.82-1.51-1.87-2.65-3.22l-5.39-6.43h-.21V55.74h.27V49.29c0-1.16,0-2.26,0-3.27v-.08Zm7.9,5.78c0,1,0,1.88,0,2.86v0C156.8,53.5,156.78,52.58,156.78,51.62Zm-7.94-2.42v0Zm0,0h0Zm0,0Zm0,0h0Zm0,0Zm0-3.07.08.1c.15.19.31.4.49.61l-.57-.71Zm0,0Zm-.1-.91.07.07Z"/><path class="cls-1" d="M169.44,55.87l-1.28-3.31h-5l-1.28,3.31h-.55L165.58,45h.22L170,55.87Zm-3-7.88c-.26-.66-.49-1.35-.71-2.06h0c-.22.71-.45,1.4-.71,2l-1.58,4.1H168Z"/><path class="cls-1" d="M170.11,55.93h-.71l0,0-1.26-3.27h-4.89l-1.29,3.31h-.69l0-.08,4.25-11h.3l0,0Zm-.63-.12h.45L165.76,45h-.14l-4.18,10.79h.42l1.28-3.31h5.06l0,0Zm-1.41-3.67h-4.79l0-.09L164.9,48c.23-.59.46-1.26.7-2l0,0h.12l0,0c.22.72.45,1.41.7,2.06ZM163.46,52h4.42l-1.53-4c-.24-.61-.46-1.25-.67-1.92-.23.72-.45,1.35-.67,1.91Z"/><path class="cls-1" d="M170.11,55.93h-.71l0,0-1.26-3.27h-4.89l-1.29,3.31h-.69l0-.08,4.25-11h.3l0,0Zm-.63-.12h.44L165.76,45h-.14l-4.18,10.79h.42l1.28-3.31h5.06l0,0Zm-1.41-3.67h-4.79l0-.09L164.9,48c.23-.59.46-1.26.7-2l0,0h.12l0,0c.22.72.46,1.41.7,2.06ZM163.46,52h4.42l-1.53-4c-.24-.6-.46-1.25-.67-1.92-.23.72-.45,1.35-.67,1.91Z"/><path class="cls-1" d="M170.2,56h-.84l0-.08-1.25-3.22h-4.8L162,56h-.83l.07-.17,4.26-11h.39l0,.08Zm-.76-.12h0v0l-1.27-3.27h-5l-1.28,3.31h0l1.28-3.31h5l0,0Zm.09-.13h.3l-4.12-10.66h0l-4.14,10.66h.29l1.28-3.3h5.15l0,.08ZM165.58,45l-2.72,7Zm.22,0v0l1.55,4Zm2.36,7.25h-5l.06-.17,1.59-4.1c.23-.59.46-1.26.7-2l0-.09h.22l0,.09c.22.71.46,1.4.7,2.05Zm-4.79-.13h0Zm.18-.12h4.24L166.29,48c-.22-.56-.42-1.15-.61-1.74-.21.64-.41,1.21-.61,1.72Zm1.73-4.85q-.17.46-.33.87l-1.42,3.69L165,48Q165.12,47.57,165.28,47.1Zm.42-1.17,0,.14c.21.66.43,1.31.67,1.92l1,2.49-1-2.49c-.25-.64-.49-1.34-.71-2.06Z"/><path class="cls-1" d="M174,55.87V45.11h.54V55.38h5.3v.49Z"/><path class="cls-1" d="M179.88,55.93h-6V45h.67V55.32h5.29Zm-5.83-.12h5.71v-.37h-5.3V45.17h-.41Z"/><path class="cls-1" d="M179.88,55.93h-6V45h.67V55.32h5.29Zm-5.83-.12h5.71v-.37h-5.3V45.17h-.41Z"/><path class="cls-1" d="M180,56h-6.09V45h.79V55.25H180Zm-6-.12h5.84v0Zm.13-.13h5.59V55.5h-5.3V45.23h-.29Zm.41-.36v0Z"/></svg>