<svg version="1.1" xmlns="http://www.w3.org/2000/svg" style="display: block;" viewBox="424 -1252 1200 3300" width="240" height="660">
<defs>
	<linearGradient id="Gradient1" gradientUnits="userSpaceOnUse" x1="653.195" y1="1855.54" x2="690.805" y2="1845.46">
		<stop class="stop0" offset="0" stop-opacity="1" stop-color="rgb(212,183,199)"/>
		<stop class="stop1" offset="1" stop-opacity="1" stop-color="rgb(215,208,207)"/>
	</linearGradient>
</defs>
<g opacity="0.15">

<path transform="translate(0,0)" fill="none" d="M 956.468 1417.15 C 984.721 1429.01 1019.43 1450.21 1046.88 1465.14 C 1066.58 1475.86 1094.18 1488.51 1111.68 1500.96 C 1115.78 1503.88 1119.39 1507.57 1121.35 1512.28 C 1125.46 1522.2 1123.96 1616.21 1123.29 1633.85 C 1130.16 1636.29 1158.17 1645.88 1162.71 1648.61 C 1178.35 1658.03 1198.87 1681.75 1212.85 1695.3 C 1212.02 1666.78 1212.34 1638.36 1212.15 1609.84 C 1212.04 1593.05 1210.49 1574.91 1212.56 1558.27 C 1213.2 1553.17 1214.07 1548.58 1217.76 1544.81 C 1226.67 1535.69 1330.14 1483.74 1346.91 1477.2 C 1371.74 1488.03 1395.5 1501.75 1419.49 1514.33 C 1437.86 1523.96 1457.64 1532.92 1475.15 1543.97 C 1479.46 1546.7 1485.61 1550.62 1487.74 1555.34 C 1492.48 1565.82 1490.28 1677.79 1489.96 1698.1 C 1504.39 1705.17 1560.41 1725.57 1564.85 1738.82 C 1566.5 1743.76 1567.02 1749.55 1567.26 1754.73 C 1568.02 1771.01 1567.46 1787.54 1567.44 1803.84 L 1567.34 1899.52 L 1567.51 1995.57 C 1567.5 2012.02 1567.97 2031.88 1567.02 2048 L 1564.94 2048 L 1528.12 2048 L 1526.51 2048 L 1421.94 2048 L 1420.17 2048 L 1346.14 2048 L 1344.85 2048 L 725.163 2048 L 672.837 2048 L 673.106 2046.25 C 674.524 2039.25 674.071 2012.08 674.065 2003.25 C 673.932 1974.69 673.986 1946.13 674.227 1917.57 C 674.207 1896.74 674.642 1875.88 675.797 1855.09 C 676.444 1843.43 671.429 1840.24 677.555 1829.53 C 671.195 1823.67 678.483 1810.2 674.837 1801.01 C 674.402 1799.91 674.569 1800.11 675.171 1798.72 L 678.681 1797.89 L 678.977 1796.59 C 676.794 1795.67 676.803 1795.73 674.986 1794.23 L 675.269 1791.53 L 679.995 1789.76 L 676.384 1787.54 C 675.073 1784.83 675.174 1778.7 674.768 1775.27 L 669.923 1776.22 C 670.505 1735.23 669.319 1693.98 669.919 1652.95 C 670.066 1642.95 669.585 1632.67 670.551 1622.73 C 667.305 1622.51 666.183 1623.38 663.023 1625.31 C 634.526 1642.68 606.365 1659.09 577.687 1676.27 C 556.41 1689.02 531.657 1701.89 511.844 1716.44 C 505.232 1721.29 504.201 1730.58 504.08 1738.74 C 503.665 1766.65 503.893 1794.99 503.924 1822.94 L 504.032 1978.7 C 504.048 1988.64 505.068 2041.12 503.312 2046.71 L 502.142 2047.02 C 499.845 2042.05 501.358 1768.83 501.014 1738.94 C 500.963 1734.55 502.614 1725.18 504.301 1720.7 C 505.925 1716.38 508.839 1714.39 512.584 1711.83 C 522.923 1704.79 534.07 1698.36 544.817 1691.89 C 565.278 1679.55 585.812 1667.33 606.417 1655.22 C 623.982 1644.79 653.97 1624.79 671.335 1616.6 C 707.67 1630.16 747.579 1647.8 782.954 1660.27 L 783.037 1566.01 C 783.026 1556.16 782.345 1530.11 783.674 1521.92 C 784.546 1516.78 787.004 1512.04 790.702 1508.36 C 795.764 1503.36 856.734 1470.81 866.541 1465.79 C 894.884 1451.28 928.283 1431.35 956.468 1417.15 z"/>
<path transform="translate(0,0)" fill="rgb(201,170,183)" d="M 956.468 1417.15 C 984.721 1429.01 1019.43 1450.21 1046.88 1465.14 C 1066.58 1475.86 1094.18 1488.51 1111.68 1500.96 C 1115.78 1503.88 1119.39 1507.57 1121.35 1512.28 C 1125.46 1522.2 1123.96 1616.21 1123.29 1633.85 C 1130.16 1636.29 1158.17 1645.88 1162.71 1648.61 C 1178.35 1658.03 1198.87 1681.75 1212.85 1695.3 C 1212.02 1666.78 1212.34 1638.36 1212.15 1609.84 C 1212.04 1593.05 1210.49 1574.91 1212.56 1558.27 C 1213.2 1553.17 1214.07 1548.58 1217.76 1544.81 C 1226.67 1535.69 1330.14 1483.74 1346.91 1477.2 C 1371.74 1488.03 1395.5 1501.75 1419.49 1514.33 C 1437.86 1523.96 1457.64 1532.92 1475.15 1543.97 C 1479.46 1546.7 1485.61 1550.62 1487.74 1555.34 C 1492.48 1565.82 1490.28 1677.79 1489.96 1698.1 C 1504.39 1705.17 1560.41 1725.57 1564.85 1738.82 C 1566.5 1743.76 1567.02 1749.55 1567.26 1754.73 C 1568.02 1771.01 1567.46 1787.54 1567.44 1803.84 L 1567.34 1899.52 L 1567.51 1995.57 C 1567.5 2012.02 1567.97 2031.88 1567.02 2048 L 1564.94 2048 L 1528.12 2048 L 1526.51 2048 L 1421.94 2048 L 1420.17 2048 L 1346.14 2048 L 1344.85 2048 C 1343.53 2041.57 1344.06 2006.64 1344.08 1998.16 L 1344.16 1874.38 C 1344.23 1851.12 1344.54 1827.8 1344.02 1804.56 C 1343.85 1797.09 1341.35 1786.07 1333.93 1782.44 C 1314.79 1773.04 1294.8 1764.87 1275.17 1756.49 C 1232.92 1738.45 1190.57 1720.67 1148.11 1703.14 L 1148.07 1897.69 L 1148.12 1993.84 C 1148.1 2005.19 1149.61 2036.8 1146.17 2045.88 C 1142.45 2041.49 1148.2 1872.04 1142.01 1863.87 C 1140.01 1863.71 1139.72 1863.68 1137.79 1863.15 L 1137.04 1860.97 C 1139.2 1858.56 1139.94 1859.17 1143.91 1858.35 C 1136.93 1848.94 1146.78 1829.97 1139.37 1826.76 L 1138.5 1827.89 L 1140.85 1834.33 C 1138.94 1836.73 1136.74 1838.68 1134.53 1840.81 C 1134.88 1846.32 1140.7 1850.87 1137.33 1855.59 L 1134.44 1855.73 C 1135.62 1853.64 1135.19 1854.72 1135.78 1852.5 C 1131.91 1850.06 1133.85 1850.35 1129.99 1850.66 L 1129.92 1851.66 C 1130.8 1853.19 1130.36 1852.26 1131.05 1854.53 C 1128.38 1852.59 1129.57 1853.74 1128.29 1849.86 C 1126.61 1848.89 1126.39 1848.76 1124.9 1847.69 L 1124.87 1844.46 L 1127.97 1847.77 C 1131.53 1848.8 1130.32 1848.53 1134.57 1846.85 L 1135.19 1845.27 L 1133.98 1844.17 L 1129.42 1844.9 C 1128.17 1840.81 1124.04 1831.94 1123.59 1829.5 L 1125.1 1828.36 L 1129.06 1828.98 L 1129.62 1827.57 C 1128.77 1824.89 1128 1823.35 1128.44 1820.58 C 1131.71 1820.6 1130.94 1820.82 1133.99 1820.03 L 1134.21 1818.2 C 1132.39 1818.09 1131.71 1818.09 1129.83 1818.19 L 1128.24 1818.29 L 1126.38 1816.03 C 1130.8 1807.88 1122.16 1794.55 1127.61 1786.68 L 1126.51 1784.78 L 1123.62 1785.89 C 1123.33 1782.41 1123.26 1782.65 1124.98 1779.62 L 1129.04 1779.07 L 1129.2 1777.9 C 1127.6 1775.83 1126.69 1776.28 1123.39 1775.51 L 1123.49 1773.55 L 1124.3 1774.69 C 1127.35 1774.54 1132.81 1774.71 1135.16 1773.44 C 1131.46 1769.67 1125.95 1771.89 1122.23 1767.05 L 1123.28 1764.34 C 1129.02 1761.6 1122.95 1765.81 1128.54 1767.31 L 1129.59 1765.39 C 1125.51 1759.05 1124.74 1732.24 1124.8 1723.71 C 1124.81 1722.55 1130.09 1721.28 1131.24 1720.91 C 1133.99 1717.58 1134.53 1713.65 1134.2 1709.26 C 1125.2 1709.22 1085.97 1725.58 1075 1730.07 C 1073.71 1760.82 1074.24 1796.03 1074.28 1827.03 L 1074.22 1964.03 L 1074.19 2019.13 C 1074.18 2025.02 1074.51 2041.04 1073.49 2046.18 C 1070.25 2041.42 1071.48 2016.47 1071.48 2008.91 L 1071.49 1942.29 L 1071.37 1738.5 C 1071.2 1714.98 1071.92 1691.8 1070.99 1668.27 C 1048.55 1643.71 1025.08 1620.43 1003.64 1594.92 C 1004.2 1625.32 1003.76 1657.46 1003.83 1688.02 L 1003.55 1925.49 C 1003.52 1941.08 1005.16 2039.7 1002.55 2046.74 L 1001.48 2046.65 L 1001.94 2047.01 C 999.61 2042.92 1000.49 2009.39 1000.49 2002.7 L 1000.58 1926.33 L 1000.55 1698.26 L 1000.33 1631.35 C 1000.31 1621.41 999.721 1599.56 1001.47 1590.46 C 1007.04 1590.54 1021.42 1596.71 1027 1598.88 C 1025.12 1569.39 1026.68 1524.65 1026.8 1493.97 C 1034.89 1497.29 1043.46 1502.33 1051.19 1506.6 L 1050.91 1607.29 C 1055.74 1609.45 1066.31 1614.43 1071.24 1614.4 C 1071.29 1583.23 1070.58 1548.19 1071.63 1517.46 C 1080.06 1521.19 1088.26 1525.43 1096.18 1530.16 L 1096.1 1590.39 C 1096.08 1598.61 1096.47 1615.82 1095.14 1623.29 C 1103.35 1626.28 1111.81 1629.8 1119.95 1633.05 C 1120.36 1611.34 1123.62 1526.97 1117.72 1512.63 C 1115.96 1508.34 1109.7 1504.4 1105.82 1501.93 C 1085.81 1489.2 1063.48 1478.64 1042.63 1467.23 C 1015.15 1452.18 987.5 1435.31 958.959 1422.58 C 956.904 1480.29 958.068 1542.81 958.083 1601.03 L 958.159 1905.89 C 958.159 1926.61 959.827 2037.34 956.752 2045.31 C 953.675 2034.9 954.953 1997.48 954.97 1984.57 L 955.002 1885.28 L 954.942 1422.87 C 933.163 1433.14 803.433 1500.41 791.306 1512.16 C 787.538 1515.81 786.87 1523.61 786.46 1528.65 C 784.54 1552.31 786.345 1577.4 786.533 1601.19 L 786.942 1715.34 C 786.973 1737.77 787.529 1763.25 786.505 1785.5 C 766.603 1794.81 738.125 1800.5 727.082 1819.06 C 725.341 1837.92 726.076 1865.07 726.073 1884.75 L 726.065 1995.81 C 726.063 2004.81 726.698 2041.31 725.139 2047.51 L 725.163 2048 L 672.837 2048 L 673.106 2046.25 C 674.524 2039.25 674.071 2012.08 674.065 2003.25 C 673.932 1974.69 673.986 1946.13 674.227 1917.57 C 674.207 1896.74 674.642 1875.88 675.797 1855.09 C 676.444 1843.43 671.429 1840.24 677.555 1829.53 C 671.195 1823.67 678.483 1810.2 674.837 1801.01 C 674.402 1799.91 674.569 1800.11 675.171 1798.72 L 678.681 1797.89 L 678.977 1796.59 C 676.794 1795.67 676.803 1795.73 674.986 1794.23 L 675.269 1791.53 L 679.995 1789.76 L 676.384 1787.54 C 675.073 1784.83 675.174 1778.7 674.768 1775.27 L 669.923 1776.22 C 670.505 1735.23 669.319 1693.98 669.919 1652.95 C 670.066 1642.95 669.585 1632.67 670.551 1622.73 C 667.305 1622.51 666.183 1623.38 663.023 1625.31 C 634.526 1642.68 606.365 1659.09 577.687 1676.27 C 556.41 1689.02 531.657 1701.89 511.844 1716.44 C 505.232 1721.29 504.201 1730.58 504.08 1738.74 C 503.665 1766.65 503.893 1794.99 503.924 1822.94 L 504.032 1978.7 C 504.048 1988.64 505.068 2041.12 503.312 2046.71 L 502.142 2047.02 C 499.845 2042.05 501.358 1768.83 501.014 1738.94 C 500.963 1734.55 502.614 1725.18 504.301 1720.7 C 505.925 1716.38 508.839 1714.39 512.584 1711.83 C 522.923 1704.79 534.07 1698.36 544.817 1691.89 C 565.278 1679.55 585.812 1667.33 606.417 1655.22 C 623.982 1644.79 653.97 1624.79 671.335 1616.6 C 707.67 1630.16 747.579 1647.8 782.954 1660.27 L 783.037 1566.01 C 783.026 1556.16 782.345 1530.11 783.674 1521.92 C 784.546 1516.78 787.004 1512.04 790.702 1508.36 C 795.764 1503.36 856.734 1470.81 866.541 1465.79 C 894.884 1451.28 928.283 1431.35 956.468 1417.15 z"/>
<path transform="translate(0,0)" fill="none" d="M 1422.7 1673.36 C 1450.46 1684.26 1479.86 1698.63 1507.43 1710.7 C 1518.39 1715.5 1546.23 1727.63 1554.37 1732.99 C 1557.79 1735.27 1560.44 1738.53 1561.97 1742.35 C 1565.53 1751.23 1564.01 1803.85 1564 1816.32 L 1564.03 1962.07 C 1564 1986.21 1562.96 2024.51 1564.94 2048 L 1528.12 2048 L 1526.51 2048 L 1421.94 2048 L 1422.18 2033.92 C 1423.2 2011.62 1422.41 1988.01 1422.38 1965.58 L 1422.66 1873.35 C 1422.47 1807.02 1423.45 1739.48 1422.7 1673.36 z"/>
<path transform="translate(0,0)" fill="rgb(201,170,183)" d="M 1467.14 1969.2 C 1485.07 1974.06 1510.86 1980.55 1527.98 1986.45 C 1529.28 2002.71 1528.43 2031.05 1528.12 2048 L 1526.51 2048 C 1523.91 2033.39 1526.3 2005.01 1525.11 1988.86 L 1500.8 1982 C 1500.8 1993.58 1502.2 2038.61 1498.73 2046.61 C 1497.3 2038.63 1497.32 1992.73 1497.17 1981.81 C 1489.89 1978.63 1478.48 1975.58 1470.6 1973.23 C 1469.91 1996.7 1471.08 2023.13 1469.64 2045.88 L 1469.04 2046.38 C 1466.61 2035.29 1466.96 1983.43 1467.14 1969.2 z"/>
<path transform="translate(0,0)" fill="rgb(201,170,183)" d="M 1441.05 1775.43 C 1446.31 1777.18 1452.03 1779.48 1457.17 1781.63 C 1486.98 1794.09 1519.69 1803.95 1548.9 1817.55 C 1549.02 1839.3 1548.82 1861.04 1548.31 1882.78 C 1513.46 1871.36 1475.39 1857.21 1440.99 1844.44 L 1441.05 1775.43 z"/>
<path transform="translate(0,0)" fill="none" d="M 1444.49 1812.27 C 1475.44 1825.62 1512.97 1837.71 1545.13 1849.85 C 1545 1859.24 1545.37 1869.26 1545.55 1878.69 C 1512.01 1865.15 1477.11 1855.18 1444.07 1842.04 L 1444.49 1812.27 z"/>
<path transform="translate(0,0)" fill="none" d="M 1444.85 1780.81 C 1476.04 1792.31 1514.79 1807.23 1545.23 1819.98 C 1545.09 1828.57 1545.17 1837.41 1545.15 1846.02 C 1511.66 1833.5 1478.07 1821.24 1444.38 1809.25 C 1444.98 1800.83 1444.76 1789.46 1444.85 1780.81 z"/>
<path transform="translate(0,0)" fill="rgb(201,170,183)" d="M 1441 1711.39 C 1451.18 1714.27 1475.35 1724.8 1486.14 1729.45 C 1505.77 1737.92 1529.69 1746.78 1548.62 1755.97 C 1548.88 1767.01 1548.54 1779.43 1548.48 1790.57 C 1544.69 1791.45 1453.24 1752.98 1440.96 1748.11 L 1441 1711.39 z"/>
<path transform="translate(0,0)" fill="none" d="M 1444.82 1716.81 C 1455.04 1720.12 1468.7 1726.53 1478.98 1730.83 L 1545.14 1758.63 L 1544.94 1786.67 C 1515.85 1772.77 1475.08 1758.07 1444.24 1745.61 C 1444.72 1736.4 1444.66 1726.11 1444.82 1716.81 z"/>
<path transform="translate(0,0)" fill="rgb(201,170,183)" d="M 1441.05 1872.87 L 1504.35 1894.72 C 1518.21 1899.4 1535.18 1904.61 1548.47 1910.18 L 1548.36 1945.74 C 1512.69 1933.88 1476.89 1922.4 1440.98 1911.31 L 1441.05 1872.87 z"/>
<path transform="translate(0,0)" fill="none" d="M 1444.04 1877.15 C 1477.69 1889.45 1512 1900.5 1545.27 1912.85 C 1544.82 1921.88 1545.38 1932.42 1545.65 1941.57 C 1511.96 1930.13 1478.1 1919.2 1444.08 1908.79 L 1444.04 1877.15 z"/>
<path transform="translate(0,0)" fill="none" d="M 1278.74 1753.24 C 1279 1749.55 1278.97 1745 1280.22 1741.49 C 1284.39 1729.82 1353.63 1701.95 1369.65 1694.63 L 1374.76 1695.55 C 1377.2 1699.87 1376.25 1700.17 1381.63 1699.45 C 1381.16 1707.52 1373.51 1711.5 1382.82 1716.61 C 1381.99 1718.64 1381.52 1719.61 1380.47 1721.54 C 1382.52 1725.48 1386.47 1726.04 1390.43 1729.7 C 1388.54 1733.68 1381.8 1733.35 1382.97 1740.72 C 1387.79 1737.48 1388.46 1732.88 1392.88 1730.95 C 1395.29 1732.47 1394.57 1732.38 1395.55 1736.06 C 1392.93 1741.27 1391.39 1737.64 1390.84 1740.87 C 1389.4 1749.32 1395.86 1754.43 1389.01 1760.2 C 1385.48 1757.46 1388.48 1756.34 1384.87 1754.2 C 1384.11 1756.53 1387.14 1760.74 1388.45 1762.97 C 1387.45 1765.1 1386.98 1766.05 1386.17 1768.27 C 1391.97 1772.08 1392.39 1766.27 1395.22 1773.2 L 1394.84 1774.16 L 1393.11 1775.59 C 1393.09 1776.65 1393.11 1781.62 1393.05 1782.32 C 1392.46 1788.47 1388.55 1793.48 1388.55 1800.01 C 1391.77 1803.91 1390.22 1801.08 1394.22 1803.33 L 1394.08 1806.47 L 1394.99 1807.44 L 1397.26 1806.36 L 1397.45 1804.48 C 1394.22 1800.92 1393.76 1800.06 1389.64 1797.86 C 1389.97 1795.41 1389.47 1796.36 1390.75 1794.83 C 1392.41 1796 1394.06 1797.2 1395.68 1798.42 C 1396.92 1795.96 1397.34 1794.93 1398.26 1792.33 L 1399.99 1791.61 L 1401.07 1792.62 C 1399.86 1795.25 1397.96 1798.44 1398.04 1801.06 L 1398.84 1801.84 C 1399.87 1809.55 1402.12 1814.99 1397.49 1820.98 C 1398.57 1823.55 1399.73 1824.01 1401.06 1826.9 C 1403.55 1827.63 1402.37 1827.74 1404.6 1826.68 L 1406.01 1823.01 L 1406.84 1824.16 C 1407.19 1826.94 1406.49 1826.53 1406.47 1828.53 C 1409.75 1829.84 1411.61 1829.62 1415.04 1829.58 C 1419.69 1833.27 1420.21 1839.13 1418.97 1844.62 C 1415.98 1847.63 1414.98 1846.96 1410.54 1846.84 L 1408.86 1849.21 C 1410.63 1850.44 1411 1850.18 1413.34 1850.7 L 1414.16 1854 L 1415.08 1856.14 C 1408.7 1862.18 1407.98 1858.34 1408.65 1868.05 C 1406.62 1871.61 1406.18 1871.25 1401.88 1872.05 L 1401.41 1874.13 L 1401.96 1875.01 C 1406.63 1873.94 1412.93 1871.12 1416.38 1872.26 C 1417.97 1874.96 1417.4 1874.72 1417.36 1878.33 L 1416.01 1879.33 C 1413.54 1878.09 1413.75 1877.98 1412.31 1875.53 C 1409.88 1878.13 1405.07 1885.61 1405.92 1889.3 C 1402.7 1890.65 1403.8 1889.56 1402.26 1892.39 L 1403.42 1894.36 L 1404.55 1894.22 L 1405.9 1891.18 L 1407.43 1891.72 L 1407.49 1892.94 C 1407.67 1895.75 1407.37 1897.45 1409.13 1899.48 C 1411.52 1899.7 1411.37 1899.78 1413.47 1898.66 C 1413.76 1906.12 1417.09 1905.93 1417.63 1912.09 C 1418.81 1925.43 1414.7 1964.17 1418.98 1974.43 C 1419 1982.6 1418.62 2026.93 1419.84 2033.07 L 1422.18 2033.92 L 1421.94 2048 L 1420.17 2048 L 1346.14 2048 C 1347.48 2044.28 1348.87 1800.55 1345.88 1792.31 C 1344.65 1788.91 1342.72 1785.15 1340.07 1782.64 C 1328.47 1771.64 1294.75 1761.26 1278.74 1753.24 z"/>
<path transform="translate(0,0)" fill="none" d="M 1414.16 1854 L 1411.75 1854.5 L 1411.94 1852.97 C 1409.65 1852.35 1407.04 1851.67 1405.29 1854.05 C 1403.37 1856.66 1402.28 1853.99 1400.63 1855.96 C 1402.82 1856.49 1403.04 1856.57 1405.09 1857.53 C 1406.67 1861.46 1406.89 1859.8 1405.8 1862.87 L 1403.03 1863.21 C 1398.02 1861.13 1395.2 1855.29 1396.09 1849.98 C 1397.5 1847.96 1398.06 1847.07 1399.2 1844.89 C 1399.37 1836.42 1392.12 1834 1395.72 1825.72 C 1396.46 1826.92 1396.82 1828.85 1397.2 1830.25 C 1401.99 1833.03 1399.57 1828.16 1405.24 1830.42 L 1406.47 1828.53 C 1409.75 1829.84 1411.61 1829.62 1415.04 1829.58 C 1419.69 1833.27 1420.21 1839.13 1418.97 1844.62 C 1415.98 1847.63 1414.98 1846.96 1410.54 1846.84 L 1408.86 1849.21 C 1410.63 1850.44 1411 1850.18 1413.34 1850.7 L 1414.16 1854 z"/>
<path transform="translate(0,0)" fill="rgb(166,132,149)" d="M 1419.84 2033.07 L 1422.18 2033.92 L 1421.94 2048 L 1420.17 2048 L 1419.84 2033.07 z"/>
<path transform="translate(0,0)" fill="none" d="M 692.841 1794.77 C 702.291 1786.77 701.496 1773.21 714.687 1794.92 C 702.615 1813.43 705.062 1813.26 723.067 1824.77 C 726.055 1896.31 721.352 1969.83 723.295 2041.55 C 723.361 2043.97 723.77 2045.48 725.139 2047.51 L 725.163 2048 L 672.837 2048 L 673.106 2046.25 C 674.524 2039.25 674.071 2012.08 674.065 2003.25 C 673.932 1974.69 673.986 1946.13 674.227 1917.57 C 674.207 1896.74 674.642 1875.88 675.797 1855.09 C 676.444 1843.43 671.429 1840.24 677.555 1829.53 C 671.195 1823.67 678.483 1810.2 674.837 1801.01 C 674.402 1799.91 674.569 1800.11 675.171 1798.72 L 678.681 1797.89 L 678.977 1796.59 C 676.794 1795.67 676.803 1795.73 674.986 1794.23 L 675.269 1791.53 L 679.995 1789.76 L 679.7 1793.39 L 677.955 1792.05 L 677.05 1792.6 L 677.9 1794.58 C 681.194 1795.67 681.924 1795.87 685.128 1794.21 C 686.169 1793.66 687.196 1793.08 688.208 1792.48 C 691.936 1792.99 690.492 1792.16 692.841 1794.77 z"/>
<path transform="translate(0,0)" fill="rgb(228,216,222)" d="M 679.995 1789.76 L 679.7 1793.39 L 677.955 1792.05 L 677.05 1792.6 L 677.9 1794.58 C 681.194 1795.67 681.924 1795.87 685.128 1794.21 C 686.169 1793.66 687.196 1793.08 688.208 1792.48 C 691.936 1792.99 690.492 1792.16 692.841 1794.77 C 691.666 1799.09 691.333 1797.92 692.412 1801.67 C 694.844 1802.62 695.151 1802.51 697.797 1802.75 L 698.122 1803.91 L 698.617 1805.59 C 699.902 1810.31 700.135 1810.07 703.188 1813.83 C 697.163 1816.72 694.367 1811.99 690.921 1812.43 C 689.589 1815.14 690.585 1815.62 691.802 1819.55 L 693.073 1820.49 L 696.309 1817.46 L 698.157 1817.57 C 699.853 1821.33 700.243 1851.2 698.806 1854.5 L 696.372 1853.23 L 698.303 1852.51 C 698.535 1848.06 698.849 1821.52 697.29 1819.02 C 695.596 1820.33 696.312 1819.57 695.118 1821.25 C 690.579 1821.46 691.241 1820.79 687.832 1822.86 C 684.883 1833.49 691.746 1830.46 682.34 1845.41 C 680.142 1846.07 681.161 1845.87 679.305 1846.11 C 682.084 1848.32 685.337 1850.33 686.514 1853.52 C 686.273 1856.27 686.907 1855.21 684.907 1856.95 C 681.811 1856.6 681.408 1856.37 678.544 1855.38 L 677.538 1856.72 C 680.653 1860.2 683.638 1857.2 687.43 1861.11 L 686.858 1863.42 C 684.039 1864.77 681.105 1863.96 677.854 1863.58 C 675.55 1865.92 676.272 1908.71 674.227 1917.57 C 674.207 1896.74 674.642 1875.88 675.797 1855.09 C 676.444 1843.43 671.429 1840.24 677.555 1829.53 C 671.195 1823.67 678.483 1810.2 674.837 1801.01 C 674.402 1799.91 674.569 1800.11 675.171 1798.72 L 678.681 1797.89 L 678.977 1796.59 C 676.794 1795.67 676.803 1795.73 674.986 1794.23 L 675.269 1791.53 L 679.995 1789.76 z"/>
<path transform="translate(0,0)" fill="none" d="M 1369.65 1694.63 C 1374.78 1692.33 1388.42 1685.79 1393.19 1684.92 C 1396.54 1687.78 1399.34 1695.16 1396.28 1699.19 L 1393.49 1699.37 C 1392.12 1697.05 1392.63 1698.29 1392.56 1695.36 L 1391.71 1695.86 C 1393.83 1704.86 1388.53 1697.01 1394.57 1705.41 C 1398.53 1704.25 1397.17 1703.8 1399.92 1704.96 C 1400.48 1708.17 1400.6 1711.44 1400.81 1714.69 C 1404.38 1715.97 1404.01 1712.97 1407.32 1714.84 L 1407.26 1717.03 C 1405.19 1718.53 1403.74 1718.29 1401.12 1718.47 C 1398.49 1722.05 1400.18 1723.52 1402.17 1727.34 L 1400.38 1729.47 L 1396.33 1729.76 L 1395.38 1730.95 L 1395.83 1733.1 L 1397.06 1733.56 L 1399.51 1731.75 C 1401.83 1733.86 1401.52 1734.41 1402.61 1737.67 C 1407.98 1739.57 1402.51 1734.92 1408.03 1737.99 L 1408.31 1739.45 L 1406.25 1742.4 C 1407.88 1745.95 1409.7 1747.87 1409.02 1750.83 L 1408.14 1751.57 C 1405.81 1753.58 1404.66 1754.28 1403.26 1757.05 C 1403.24 1760.44 1402.7 1759.04 1404.59 1761.51 L 1407.01 1760.98 L 1408.54 1762.63 C 1407.4 1764.81 1407.91 1763.86 1405.39 1765.46 C 1407.67 1768.38 1410.75 1766.75 1409.64 1769.61 C 1408.55 1772.42 1408.17 1771.89 1408.55 1774.97 C 1409.78 1776.24 1409.3 1775.45 1409.79 1777.44 C 1407.19 1777.69 1401.72 1774.51 1398.31 1773.47 L 1394.84 1774.16 L 1395.22 1773.2 C 1392.39 1766.27 1391.97 1772.08 1386.17 1768.27 C 1386.98 1766.05 1387.45 1765.1 1388.45 1762.97 C 1387.14 1760.74 1384.11 1756.53 1384.87 1754.2 C 1388.48 1756.34 1385.48 1757.46 1389.01 1760.2 C 1395.86 1754.43 1389.4 1749.32 1390.84 1740.87 C 1391.39 1737.64 1392.93 1741.27 1395.55 1736.06 C 1394.57 1732.38 1395.29 1732.47 1392.88 1730.95 C 1388.46 1732.88 1387.79 1737.48 1382.97 1740.72 C 1381.8 1733.35 1388.54 1733.68 1390.43 1729.7 C 1386.47 1726.04 1382.52 1725.48 1380.47 1721.54 C 1381.52 1719.61 1381.99 1718.64 1382.82 1716.61 C 1373.51 1711.5 1381.16 1707.52 1381.63 1699.45 C 1376.25 1700.17 1377.2 1699.87 1374.76 1695.55 L 1369.65 1694.63 z"/>
<path transform="translate(0,0)" fill="rgb(228,216,222)" d="M 1398.31 1773.47 C 1399.15 1770.18 1399.39 1767.77 1401.62 1765.26 C 1405.43 1767.18 1404.36 1772.65 1408.55 1774.97 C 1409.78 1776.24 1409.3 1775.45 1409.79 1777.44 C 1407.19 1777.69 1401.72 1774.51 1398.31 1773.47 z"/>
<path transform="translate(0,0)" fill="rgb(228,216,222)" d="M 670.551 1622.73 C 672.847 1632.32 670.373 1645.15 672.843 1651.28 C 678.177 1664.52 672.562 1703.33 675.87 1714.59 C 679.582 1715.25 678.549 1714.3 680.159 1716.49 C 676.282 1719.65 674.432 1716.15 674.518 1719.95 C 674.656 1726.05 675.032 1732.95 675.206 1738.99 C 675.6 1751.08 675.454 1763.19 674.768 1775.27 L 669.923 1776.22 C 670.505 1735.23 669.319 1693.98 669.919 1652.95 C 670.066 1642.95 669.585 1632.67 670.551 1622.73 z"/>
<path transform="translate(0,0)" fill="none" d="M 1405.92 1889.3 C 1407.43 1885.62 1406.87 1885.29 1409.57 1883.33 L 1410.73 1884.27 C 1412.42 1885.61 1411.73 1885.1 1413.59 1886.27 L 1416.8 1883.83 L 1418.38 1884.39 C 1420.18 1891.72 1419.77 1964.83 1418.98 1974.43 C 1414.7 1964.17 1418.81 1925.43 1417.63 1912.09 C 1417.09 1905.93 1413.76 1906.12 1413.47 1898.66 C 1411.37 1899.78 1411.52 1899.7 1409.13 1899.48 C 1407.37 1897.45 1407.67 1895.75 1407.49 1892.94 L 1407.43 1891.72 L 1405.9 1891.18 L 1404.55 1894.22 L 1403.42 1894.36 L 1402.26 1892.39 C 1403.8 1889.56 1402.7 1890.65 1405.92 1889.3 z"/>
<path transform="translate(0,0)" fill="none" d="M 1398.84 1801.84 L 1402.61 1802.44 C 1405.02 1799.81 1404.13 1798.97 1406.69 1796.55 C 1408.23 1797.27 1408.28 1797.68 1409.57 1799.03 C 1410.87 1808.3 1403.95 1802.02 1409.62 1816.93 C 1408.33 1819.76 1408.4 1821.68 1406.84 1824.16 L 1406.01 1823.01 L 1404.6 1826.68 C 1402.37 1827.74 1403.55 1827.63 1401.06 1826.9 C 1399.73 1824.01 1398.57 1823.55 1397.49 1820.98 C 1402.12 1814.99 1399.87 1809.55 1398.84 1801.84 z"/>
<path transform="translate(0,0)" fill="none" d="M 1342.8 1483.85 L 1343.94 1485.13 C 1344.6 1492.55 1347.09 1503.89 1339.74 1508.49 C 1331.38 1509.66 1330.93 1503.3 1324.7 1500.91 L 1324.56 1502.32 C 1330.02 1504.44 1329.5 1505.73 1330.51 1510.77 C 1333.12 1512.04 1341.12 1511.54 1344.49 1511.51 C 1344.39 1519.81 1345.24 1529.08 1344.35 1537.2 C 1343.91 1541.19 1334.99 1540.13 1332.69 1547.5 L 1334.44 1550.35 L 1341.81 1550.48 L 1341.36 1549.28 L 1336.47 1548.41 L 1335.86 1547 C 1337.98 1544.11 1341.29 1542.71 1344.49 1540.94 C 1344.45 1548.75 1345.42 1586.95 1343.53 1591.22 C 1340.95 1592.36 1339.21 1593.02 1336.59 1593.95 L 1337.53 1595.53 L 1343.37 1596.56 C 1345.8 1599.76 1345.06 1688.05 1344.92 1700.91 C 1324.49 1712.46 1300.98 1719.41 1282.25 1732.28 C 1275.44 1736.96 1275.91 1743.83 1275.45 1751.54 C 1271.86 1751.93 1240.02 1737.03 1235.39 1734.56 L 1235.36 1732.65 C 1234.95 1716.03 1227.54 1710.26 1215.84 1699.27 C 1216.25 1659.97 1214.81 1620.23 1215.14 1580.96 C 1215.22 1572.33 1214.57 1550.84 1221.38 1546.07 C 1248.22 1527.25 1281.4 1514.18 1310.24 1498.27 C 1316.44 1494.85 1319.68 1494.7 1326.28 1493 C 1329.36 1491.44 1338.07 1486.19 1342.8 1483.85 z"/>
<path transform="translate(0,0)" fill="rgb(201,170,183)" d="M 1289.84 1617.91 C 1286.03 1619.08 1287.8 1618.09 1284.93 1621.85 C 1284.34 1626.8 1287.11 1629.32 1291.99 1628.71 C 1293.32 1627.6 1295.16 1625.97 1296.59 1625.08 C 1302.72 1621.29 1311.24 1630.71 1312.97 1635.81 C 1313.01 1641.23 1309.98 1642.06 1308.78 1647.33 C 1311.02 1656.3 1318.49 1653.85 1323.66 1659.02 C 1327.25 1662.61 1326.25 1673.16 1321.82 1676.28 C 1317.8 1676.65 1315.77 1676.48 1312.31 1678.34 C 1306.89 1685.83 1312.56 1690.43 1317.34 1695.82 C 1317.32 1699.71 1313.46 1705.55 1310.7 1708.15 C 1303.94 1714.53 1299.89 1708.53 1291.54 1708.5 C 1285.54 1711.7 1289.59 1727.58 1271.05 1722.45 C 1258.56 1719 1268.53 1715.2 1260.36 1709.03 C 1253.63 1708.12 1250.48 1718.82 1240.28 1710.12 C 1225.65 1697.65 1238.45 1695.08 1237.69 1685.36 C 1232.61 1675.92 1232.72 1683.8 1226.37 1679.56 C 1223.5 1673.17 1224.31 1664.9 1224.66 1657.93 C 1226.17 1655.95 1231.54 1655.8 1234.78 1655.27 C 1242.39 1648.25 1224.21 1635.12 1242.98 1626.61 C 1251.65 1622.67 1252.03 1627.25 1259.62 1627.49 C 1265.39 1621.04 1256.96 1619.02 1267.98 1613.86 C 1266.4 1609.36 1261.56 1609.83 1259.48 1607.64 C 1253.27 1601.14 1260.6 1598.51 1259.39 1591.98 C 1256.09 1590 1248.86 1586.9 1248.56 1582.2 C 1247.8 1570.25 1256.04 1572.65 1260.41 1567 C 1258.36 1564.55 1257.33 1563.79 1256.9 1560.62 C 1265.92 1539.42 1270.93 1554.85 1277.47 1549.08 C 1278.05 1545.8 1277.99 1544.45 1280.13 1541.88 C 1283.22 1540.37 1285.32 1541.04 1288.77 1541.46 L 1287.23 1541.99 C 1290.09 1542.42 1291.39 1542.48 1294.11 1543.63 C 1296.61 1547.15 1296.74 1547.29 1298.36 1551.25 C 1302.64 1551.96 1308.45 1544.84 1316.06 1553.07 C 1319.57 1563.99 1306.54 1567.5 1325.06 1572.4 C 1325.25 1577.12 1325.96 1581.84 1324.17 1586.03 C 1321.71 1587.95 1321.56 1587.77 1318.48 1588.61 C 1316.08 1591 1316.19 1590.78 1315.3 1594.05 C 1316.76 1602.06 1318.91 1607.07 1308.84 1611.02 C 1302.99 1613.32 1301.72 1601.27 1294.55 1616.57 C 1291.79 1618.41 1293.29 1617.92 1289.84 1617.91 z"/>
<path transform="translate(0,0)" fill="none" d="M 1283.06 1548.84 C 1281.09 1547.58 1281.99 1548.3 1280.71 1545.98 L 1281.42 1543.89 C 1284.12 1542.1 1283.96 1542.27 1287.23 1541.99 C 1290.09 1542.42 1291.39 1542.48 1294.11 1543.63 C 1296.61 1547.15 1296.74 1547.29 1298.36 1551.25 C 1302.64 1551.96 1308.45 1544.84 1316.06 1553.07 C 1319.57 1563.99 1306.54 1567.5 1325.06 1572.4 C 1325.25 1577.12 1325.96 1581.84 1324.17 1586.03 C 1321.71 1587.95 1321.56 1587.77 1318.48 1588.61 C 1316.08 1591 1316.19 1590.78 1315.3 1594.05 C 1316.76 1602.06 1318.91 1607.07 1308.84 1611.02 C 1302.99 1613.32 1301.72 1601.27 1294.55 1616.57 C 1291.79 1618.41 1293.29 1617.92 1289.84 1617.91 C 1287.17 1616.32 1288.03 1617.46 1286.71 1614.91 C 1283.52 1612.19 1282.62 1607.98 1279.5 1605.91 C 1275.41 1603.19 1271.09 1606.71 1266.41 1606.73 C 1257.59 1601.28 1267.66 1600.87 1265.04 1590.98 C 1261.71 1586.32 1258.63 1586.97 1254.53 1583.4 C 1254.93 1571.72 1257.18 1578.87 1263.54 1572.51 C 1265.25 1567.76 1264.1 1563.03 1263.85 1557.62 C 1268.11 1551.84 1272.86 1559.27 1281.14 1555.06 C 1283.47 1551.4 1282.76 1553.37 1283.06 1548.84 z"/>
<path transform="translate(0,0)" fill="rgb(228,216,222)" d="M 1283.06 1548.84 C 1281.09 1547.58 1281.99 1548.3 1280.71 1545.98 L 1281.42 1543.89 C 1284.12 1542.1 1283.96 1542.27 1287.23 1541.99 C 1290.09 1542.42 1291.39 1542.48 1294.11 1543.63 C 1296.61 1547.15 1296.74 1547.29 1298.36 1551.25 C 1302.64 1551.96 1308.45 1544.84 1316.06 1553.07 C 1319.57 1563.99 1306.54 1567.5 1325.06 1572.4 C 1325.25 1577.12 1325.96 1581.84 1324.17 1586.03 C 1321.71 1587.95 1321.56 1587.77 1318.48 1588.61 C 1316.08 1591 1316.19 1590.78 1315.3 1594.05 C 1316.76 1602.06 1318.91 1607.07 1308.84 1611.02 C 1302.99 1613.32 1301.72 1601.27 1294.55 1616.57 C 1291.79 1618.41 1293.29 1617.92 1289.84 1617.91 C 1287.17 1616.32 1288.03 1617.46 1286.71 1614.91 C 1292.77 1612.59 1294.74 1604.39 1302.42 1603.2 C 1303.23 1603.08 1304.91 1605.4 1309.11 1604.83 C 1310.09 1604.02 1311.08 1603.22 1312.06 1602.41 C 1311.98 1596.34 1310.83 1593.93 1312 1587.84 C 1314.7 1584.2 1326.59 1583.77 1320.34 1575.43 C 1303.14 1572.13 1313.41 1562.33 1310.95 1556.03 C 1305.73 1554.47 1301.18 1557.17 1298.14 1556.1 C 1292.86 1554.23 1293.5 1547.1 1287.73 1545.57 C 1284.87 1546.65 1285.03 1546.5 1283.06 1548.84 z"/>
<path transform="translate(0,0)" fill="rgb(228,216,222)" d="M 1283.9 1563.67 C 1292.65 1561.33 1301.64 1566.53 1303.99 1575.28 C 1306.33 1584.03 1301.13 1593.02 1292.39 1595.36 C 1283.63 1597.71 1274.64 1592.51 1272.3 1583.76 C 1269.95 1575.01 1275.15 1566.01 1283.9 1563.67 z"/>
<path transform="translate(0,0)" fill="none" d="M 1284.82 1567.88 C 1291.27 1566.12 1297.93 1569.9 1299.72 1576.34 C 1301.52 1582.78 1297.76 1589.46 1291.33 1591.28 C 1284.85 1593.12 1278.12 1589.34 1276.32 1582.85 C 1274.51 1576.37 1278.32 1569.65 1284.82 1567.88 z"/>
<path transform="translate(0,0)" fill="none" d="M 1268.02 1619 C 1272.54 1618.78 1274.23 1618.44 1278.52 1619.53 C 1281.63 1622.35 1280.84 1623.26 1281.69 1628.44 C 1288.46 1634.66 1297.3 1628.84 1307.88 1632.79 C 1312.92 1638.19 1308.64 1641.68 1304.47 1646.01 C 1310.69 1661.82 1309.36 1653.63 1319.89 1660.99 C 1321.85 1664.22 1321.16 1669.29 1321.08 1673.3 L 1310.86 1674.7 L 1305.31 1687.92 C 1307.51 1689.93 1310.63 1692.35 1312.99 1694.3 C 1309.49 1700.11 1307.84 1702.3 1303.54 1707.51 C 1300.53 1705.53 1297.18 1703.01 1294.19 1700.88 L 1289.21 1703.76 C 1278.9 1709.6 1285.49 1711.09 1280.87 1716.97 C 1277.09 1717.16 1274.22 1717.67 1270.7 1716.4 C 1268.22 1714.03 1267.99 1709.64 1267.34 1706.02 C 1263.53 1704.74 1259.62 1703.3 1255.82 1701.95 L 1248.86 1708.83 C 1244.38 1705.41 1241.06 1702.36 1236.94 1698.59 L 1244.35 1691.31 C 1242.96 1686.51 1241.28 1681.53 1239.75 1676.75 L 1229.01 1675.73 L 1228.98 1660.64 L 1239.46 1659.86 C 1240.79 1655.93 1242.36 1651.92 1243.82 1648.02 C 1241.78 1644.84 1239.53 1641.62 1237.41 1638.48 C 1240.67 1634.79 1243.85 1631.96 1247.46 1628.63 C 1250.5 1630.6 1252.53 1632.58 1255.21 1634.98 C 1258.49 1633.53 1261.03 1632.33 1264.21 1630.66 C 1267.69 1626.05 1265.77 1625.75 1267.42 1620.78 L 1268.02 1619 z"/>
<path transform="translate(0,0)" fill="rgb(201,170,183)" d="M 1270.44 1645.1 C 1296.36 1643.73 1302.48 1665.8 1290.01 1685.69 C 1286.55 1687.67 1282.97 1689.02 1279.29 1690.55 C 1270.2 1692.95 1260.5 1687.04 1256.68 1678.71 C 1253.8 1672.42 1253.55 1665.25 1255.98 1658.77 C 1258.99 1650.84 1263.11 1648.21 1270.44 1645.1 z"/>
<path transform="translate(0,0)" fill="none" d="M 1268.75 1649.13 C 1277.49 1647.93 1284.89 1649.21 1289.97 1657.27 C 1292.76 1661.73 1293.64 1667.12 1292.41 1672.24 C 1290.79 1679.12 1287.02 1682.44 1281.37 1686.08 C 1259.81 1692.1 1248.34 1665.27 1268.75 1649.13 z"/>
<path transform="translate(0,0)" fill="none" d="M 1348.89 1482.28 C 1364.65 1489.03 1473.63 1545.12 1482.07 1554.15 C 1485.36 1557.66 1486.2 1564.13 1486.7 1568.71 C 1488.33 1583.35 1487.19 1599.03 1487.14 1613.77 L 1486.83 1697 C 1479.93 1693.78 1472.72 1690.68 1465.75 1687.57 C 1453.39 1682.21 1433.33 1671.84 1420.95 1668.32 C 1412.32 1670.57 1400.29 1676.71 1392 1680.44 C 1377.53 1686.94 1363.25 1693.83 1348.44 1699.62 C 1347.49 1671.34 1348.23 1639.56 1348.33 1611.03 C 1348.13 1568.11 1348.31 1525.19 1348.89 1482.28 z"/>
<path transform="translate(0,0)" fill="rgb(201,170,183)" d="M 1366.98 1532.12 C 1375.9 1535.56 1391.06 1543.46 1400.14 1547.85 C 1423.05 1559.04 1446.02 1570.09 1469.06 1581.01 L 1469.05 1612.65 C 1460 1610.04 1440.58 1600.42 1431.54 1596.2 L 1366.93 1565.82 C 1367.08 1554.7 1366.96 1543.27 1366.98 1532.12 z"/>
<path transform="translate(0,0)" fill="none" d="M 1370.2 1537.98 C 1379.02 1541.19 1396.03 1550.24 1405.27 1554.78 L 1465.68 1584.09 C 1465.16 1591.54 1465.29 1599.77 1465.25 1607.3 C 1433.82 1592.56 1402.29 1578 1370.69 1563.63 C 1370.77 1555.17 1370.43 1546.46 1370.2 1537.98 z"/>
<path transform="translate(0,0)" fill="rgb(201,170,183)" d="M 1367.18 1596.96 C 1376.88 1600.36 1392.7 1607.76 1402.59 1612.04 L 1469.14 1641.1 L 1469.25 1672.88 C 1439.58 1661.46 1395.31 1643.07 1366.96 1629.38 C 1366.94 1618.58 1367.01 1607.77 1367.18 1596.96 z"/>
<path transform="translate(0,0)" fill="none" d="M 1370.41 1602.06 C 1375.14 1603.99 1379.78 1606.17 1384.43 1608.29 C 1411.35 1620.63 1438.96 1631.47 1465.77 1644.05 C 1465.25 1651.04 1465.4 1660.42 1465.31 1667.59 C 1443.44 1656.44 1394.73 1637.01 1370.88 1627.54 C 1370.98 1619.28 1370.6 1610.38 1370.41 1602.06 z"/>
<path transform="translate(0,0)" fill="none" d="M 1009.11 1596.62 C 1009.38 1596.66 1009.65 1596.7 1009.92 1596.73 C 1059.15 1614.84 1116.62 1633.66 1164.37 1653.79 C 1168.54 1655.54 1224.85 1712.23 1230.1 1721.56 C 1231.74 1724.47 1231.64 1728.78 1230.7 1732.02 L 1228.88 1732.4 C 1219.4 1729.9 1153.48 1701.74 1147.52 1696.37 C 1147.3 1696.17 1147.09 1695.96 1146.87 1695.75 C 1138.19 1704.07 1087.78 1720.9 1075.02 1725.21 C 1075.04 1708.18 1075.31 1687.32 1074.29 1670.56 C 1087.9 1675.91 1132.01 1694.85 1144.1 1694.73 L 1144.29 1693.71 C 1132.38 1684.12 1085.51 1674.96 1075.24 1665.95 C 1052.35 1645.85 1031.45 1618.43 1009.11 1596.62 z"/>
<path transform="translate(0,0)" fill="none" d="M 700.684 1632.35 C 705.138 1634.04 712.637 1637.16 716.949 1638.46 C 738.47 1647.25 762.347 1656.07 783.131 1665.86 L 783.104 1711.53 C 770.058 1724.89 767.19 1711.45 764.743 1700.4 C 757.435 1700.87 748.307 1701.2 741.295 1702.58 C 740.995 1723.83 733.85 1723.8 717.942 1713.59 C 715.235 1715.88 711.178 1720 707.978 1720.46 C 705.185 1717.23 705.735 1710.42 705.71 1705.88 L 706.618 1704.51 C 708.647 1704.8 710.678 1705.07 712.711 1705.31 L 713.558 1703.92 C 709.027 1696.84 701.876 1708.77 699.02 1696.95 C 697.33 1696.22 695.727 1695.45 694.161 1694.48 L 693.875 1692.93 C 699.411 1691.32 697.342 1695.97 699.752 1692.01 L 699.64 1689.56 C 702.059 1687.33 703.329 1686.16 705.493 1683.59 L 703.193 1681.56 L 703.413 1684.83 L 701.805 1685.85 C 696.882 1683.2 703.092 1681.11 697.994 1681.49 L 696.996 1684.75 C 694.034 1683.07 695.386 1684.03 693.488 1680.27 L 692.701 1678.74 L 693.892 1677.44 C 696.535 1677.39 698.749 1677.42 701.37 1677.5 L 701.03 1676.76 C 698.737 1676.24 699.884 1676.66 697.623 1675.43 C 697.534 1673.41 697.856 1674.02 696.924 1672.48 C 693.961 1674.85 692.635 1675.8 689.395 1677.76 L 687.931 1677.2 C 687.733 1673.4 687.273 1675.22 690.154 1671.8 L 688.957 1672.26 L 687.66 1671.59 L 686.125 1672.15 L 680.754 1666.59 C 679.868 1663.18 679.844 1664.91 681.454 1661.26 C 683.861 1659.88 682.928 1660.85 683.84 1657.87 C 685.335 1654.21 684.095 1655.44 687.501 1653.87 L 689.183 1654.81 C 689.577 1657.28 689.556 1657.81 690.504 1660.09 C 695.778 1657.51 691.067 1651.93 703.158 1652.06 C 704.901 1650.31 704.411 1651.02 705.409 1648.65 L 703.33 1646.16 C 702.94 1647.54 703.25 1646.74 702.162 1648.46 L 699.967 1648.08 C 697.588 1645.29 697.654 1644.16 696.944 1640.6 L 697.781 1639.37 C 699.468 1636.92 699.817 1635.15 700.684 1632.35 z"/>
<path transform="translate(0,0)" fill="none" d="M 683.84 1657.87 C 685.335 1654.21 684.095 1655.44 687.501 1653.87 L 689.183 1654.81 C 689.577 1657.28 689.556 1657.81 690.504 1660.09 C 695.778 1657.51 691.067 1651.93 703.158 1652.06 C 706.836 1658.34 707.184 1674.07 702.128 1679.59 C 697.414 1680.85 697.112 1678.41 693.488 1680.27 L 692.701 1678.74 L 693.892 1677.44 C 696.535 1677.39 698.749 1677.42 701.37 1677.5 L 701.03 1676.76 C 698.737 1676.24 699.884 1676.66 697.623 1675.43 C 697.534 1673.41 697.856 1674.02 696.924 1672.48 C 693.961 1674.85 692.635 1675.8 689.395 1677.76 L 687.931 1677.2 C 687.733 1673.4 687.273 1675.22 690.154 1671.8 L 688.957 1672.26 L 687.66 1671.59 L 686.125 1672.15 L 680.754 1666.59 C 679.868 1663.18 679.844 1664.91 681.454 1661.26 C 683.861 1659.88 682.928 1660.85 683.84 1657.87 z"/>
<path transform="translate(0,0)" fill="rgb(228,216,222)" d="M 683.84 1657.87 C 688.276 1663.35 688.904 1665.53 686.125 1672.15 L 680.754 1666.59 C 679.868 1663.18 679.844 1664.91 681.454 1661.26 C 683.861 1659.88 682.928 1660.85 683.84 1657.87 z"/>
<path transform="translate(0,0)" fill="none" d="M 700.684 1632.35 C 705.138 1634.04 712.637 1637.16 716.949 1638.46 C 713.09 1642.46 714.24 1642.13 713.308 1648.7 C 708.175 1645.36 710.237 1643.5 705.731 1642.19 C 703.921 1643.93 703.887 1643.75 703.33 1646.16 C 702.94 1647.54 703.25 1646.74 702.162 1648.46 L 699.967 1648.08 C 697.588 1645.29 697.654 1644.16 696.944 1640.6 L 697.781 1639.37 C 699.468 1636.92 699.817 1635.15 700.684 1632.35 z"/>
<path transform="translate(0,0)" fill="none" d="M 709.156 1682.53 C 711.349 1682.48 711.823 1682.55 713.991 1682.76 L 714.671 1684.16 C 712.808 1686.72 711.55 1687.91 709.355 1690.11 C 708.152 1691.52 708.937 1691.05 706.895 1691.3 C 705.595 1687.72 706.277 1684.8 709.156 1682.53 z"/>
<path transform="translate(0,0)" fill="none" d="M 757.764 1704.37 C 761.254 1704.06 759.708 1703.71 762.624 1705.14 C 764.901 1708.88 764.494 1712.89 764.674 1717.43 C 769.523 1718.71 773.975 1721.15 778.4 1721.58 L 781.907 1717.63 L 782.801 1717.8 C 783.5 1732.04 783.981 1750.74 783.466 1764.87 C 777.148 1746.24 765.477 1729.29 742.529 1742.15 C 730.184 1749.08 725.574 1769.04 732.881 1780.97 C 738.192 1789.64 744.839 1792.45 754.332 1795.08 C 748.937 1797.51 743.942 1799.69 738.446 1801.88 C 729.131 1806.92 726.752 1810.11 722.843 1819.93 C 717.389 1815.85 714.948 1813.55 710.077 1808.77 C 713.398 1805.1 715.974 1801.76 718.979 1797.87 C 716.449 1792.64 714.284 1786.86 712.116 1781.44 C 707.496 1780.61 702.571 1780.27 697.879 1779.83 L 697.638 1761.94 L 710.752 1758.14 C 711.873 1753.37 713.82 1747.78 715.333 1743.04 L 705.596 1733.17 C 709.461 1727.84 714.695 1722.3 719.151 1717.33 C 730.735 1727.13 730.136 1725.79 743.886 1718.96 C 743.862 1714.59 743.22 1710.1 745.685 1706.74 C 749.229 1704.4 753.348 1704.68 757.764 1704.37 z"/>
<path transform="translate(0,0)" fill="none" d="M 753.79 1741.04 C 756.654 1741.14 761.405 1742.21 764.007 1743.32 C 769.781 1745.79 774.301 1750.51 776.529 1756.38 C 779.065 1763.21 778.65 1770.78 775.383 1777.29 C 771.122 1785.75 765.961 1788.16 757.629 1791.01 C 753.604 1790.49 749.087 1789.84 745.454 1787.99 C 739.826 1785.06 735.596 1780.02 733.699 1773.96 C 731.676 1767.28 732.466 1760.06 735.887 1753.97 C 740.244 1746.28 745.769 1743.48 753.79 1741.04 z"/>
<path transform="translate(0,0)" fill="none" d="M 1029.97 1499.21 C 1034.23 1501.04 1043.13 1506.14 1047.61 1508.52 C 1047.28 1527.42 1047.13 1546.33 1047.15 1565.23 C 1047.11 1577.23 1046.66 1595.12 1048.03 1606.57 C 1042.16 1604.08 1035.12 1601.63 1029.07 1599.37 C 1030.94 1571.8 1029.8 1528.37 1029.97 1499.21 z"/>
<path transform="translate(0,0)" fill="none" d="M 1075.32 1522.79 L 1092.99 1531.72 C 1092.99 1543.16 1094.38 1618.53 1091.78 1622.12 C 1086.01 1620.35 1079.37 1618.42 1074.45 1615.11 C 1074.05 1613.93 1075.28 1529.84 1075.32 1522.79 z"/>
<path transform="translate(0,0)" fill="rgb(228,216,222)" d="M 1134.93 1726.99 C 1139.98 1726.8 1143.24 1726.51 1145.3 1731.57 C 1144.4 1733.1 1143.48 1734.27 1142.26 1735.56 C 1147.82 1740.52 1143.05 1752.08 1144.43 1760.53 L 1143.24 1761.81 C 1141.32 1762.51 1138.48 1763.91 1136.53 1764.79 C 1135.71 1762.72 1137.57 1758.84 1138.37 1755.93 L 1135.66 1753.79 C 1135.88 1747 1136.73 1733.02 1134.93 1726.99 z"/>
<path transform="translate(0,0)" fill="rgb(228,216,222)" d="M 674.829 1622.3 C 684.008 1625.23 691.842 1628.62 700.684 1632.35 C 699.817 1635.15 699.468 1636.92 697.781 1639.37 C 687.993 1626.13 682.08 1640.59 676.198 1639.58 C 675.883 1643.11 676.624 1642.77 674.955 1644.49 C 674.329 1641.94 674.779 1625.66 674.829 1622.3 z"/>
<path transform="translate(0,0)" fill="rgb(228,216,222)" d="M 1417.65 1674.13 L 1418.83 1675.14 C 1419.29 1678.17 1419.06 1678.3 1418.43 1681.38 C 1415.63 1683.9 1415.38 1684.16 1411.66 1684.74 L 1410.45 1686.16 L 1410.21 1684.26 C 1407.83 1681.45 1406.37 1681.41 1402.99 1680.47 C 1407.78 1676.86 1411.93 1675.97 1417.65 1674.13 z"/>
<path transform="translate(0,0)" fill="none" d="M 781.499 1771.33 C 787.977 1776.67 782.577 1783.93 775.437 1786.5 L 775.121 1786.14 C 774.638 1783.83 779.939 1774.77 781.499 1771.33 z"/>
<path transform="translate(0,0)" fill="none" d="M 690.219 1746.19 C 696.465 1748.62 698.382 1751.6 699.45 1757.96 L 695.056 1756.75 C 692.167 1754.12 691.428 1750.03 690.219 1746.19 z"/>
<path transform="translate(0,0)" fill="rgb(201,170,183)" d="M 859.004 1538.09 C 878.762 1535.74 871.525 1541.52 877.952 1549.67 C 886.194 1553.1 886.922 1543.97 897.263 1553.4 C 900.376 1552.73 924.281 1546.42 924.689 1553.4 C 927.754 1605.9 925.136 1659.27 925.956 1711.99 C 925.998 1714.7 924.743 1725.48 923.094 1728.58 C 910.166 1736.02 883.059 1737.16 868.239 1738.94 C 857.732 1739.56 804.954 1752.98 804.227 1739.21 C 801.506 1687.63 803.635 1634.88 803.319 1583.07 C 803.203 1564.03 815.036 1565.55 830.414 1563.05 C 835.638 1555.96 836.044 1556.53 845.053 1555.77 C 845.73 1553.58 846.466 1551.41 847.26 1549.26 C 849.801 1542.59 852.885 1540.86 859.004 1538.09 z"/>
<path transform="translate(0,0)" fill="none" d="M 901.953 1567.26 C 905.049 1567.02 907.2 1566.46 909.896 1567.86 C 910.997 1572.13 910.379 1609.67 910.342 1615.92 C 910.035 1648.8 910.054 1681.69 910.402 1714.56 C 880.436 1719.43 850.654 1723.11 820.826 1727.71 C 819.424 1727.12 820.247 1727.57 818.573 1726.02 C 817.239 1717.72 817.716 1689.42 817.713 1679.75 L 817.992 1580.51 C 833.078 1577.24 830.599 1583.13 834.606 1582.98 C 853.61 1582.27 874.123 1578.61 892.778 1575.14 C 896.395 1574.46 893.022 1569.52 901.953 1567.26 z"/>
<path transform="translate(0,0)" fill="rgb(201,170,183)" d="M 843.966 1652.46 C 845.648 1652.28 844.777 1652.15 846.518 1653.15 C 847.649 1658.36 847.042 1664.3 846.826 1669.73 C 842.236 1670.34 837.396 1670.73 832.769 1671.18 L 831.009 1670.64 C 829.658 1668.28 830.242 1657.19 830.212 1653.31 L 843.966 1652.46 z"/>
<path transform="translate(0,0)" fill="none" d="M 833.903 1656.98 C 837.129 1656.83 839.409 1656.31 842.139 1657.89 C 843.463 1660.71 842.389 1663.3 841.697 1666.52 C 837.36 1666.88 838.003 1667.48 834.681 1665.83 C 833.002 1662.83 833.631 1660.49 833.903 1656.98 z"/>
<path transform="translate(0,0)" fill="rgb(201,170,183)" d="M 830.678 1625.07 L 846.636 1624.76 C 846.857 1629.95 847.596 1637.99 845.769 1642.59 L 830.327 1643.8 C 830.792 1638.03 830.648 1630.97 830.678 1625.07 z"/>
<path transform="translate(0,0)" fill="none" d="M 833.832 1629.1 C 837.131 1628.81 839.383 1628.17 842.153 1629.8 C 843.791 1632.66 842.825 1635.78 842.374 1639.27 C 839.192 1639.73 838.136 1640.15 835.063 1639.09 C 833.147 1636.48 833.756 1632.56 833.832 1629.1 z"/>
<path transform="translate(0,0)" fill="rgb(201,170,183)" d="M 830.107 1681.38 L 846.902 1680.6 L 845.838 1697.87 L 830.247 1699 L 830.107 1681.38 z"/>
<path transform="translate(0,0)" fill="none" d="M 833.148 1684.36 C 836.657 1684.04 838.863 1683.49 842.106 1684.82 C 844.061 1687.56 843.268 1691.77 843.074 1695.38 C 839.839 1695.48 838.163 1695.8 835.157 1694.56 C 832.835 1690.95 833.457 1689.06 833.148 1684.36 z"/>
<path transform="translate(0,0)" fill="rgb(201,170,183)" d="M 848.156 1594.63 L 849.314 1595.63 C 849.335 1600.09 842.169 1611.43 838.551 1614.44 C 836.354 1616.27 836.062 1615.69 833.442 1615.49 C 831.305 1614.06 831.409 1614.22 830.282 1611.91 C 829.515 1607.9 829.503 1607.88 829.805 1603.81 L 830.98 1603.16 C 833.103 1605.71 834.277 1607.25 836.837 1609.44 C 839.229 1607.91 844.901 1598.07 848.156 1594.63 z"/>
<path transform="translate(0,0)" fill="rgb(201,170,183)" d="M 890.421 1627.39 C 893.178 1626.89 897.074 1626.72 899.693 1627.85 C 893.967 1631.41 872.853 1632.91 865.238 1633.73 C 861.027 1634.18 860.184 1634.07 855.914 1633.62 L 856.412 1632.56 C 866.211 1629.68 880.025 1628.46 890.421 1627.39 z"/>
<path transform="translate(0,0)" fill="rgb(201,170,183)" d="M 892.677 1655.41 C 897.307 1655.1 895.324 1654.56 899.017 1656.33 L 898.282 1657.31 C 887.484 1659.43 873.406 1660.46 862.24 1661.59 C 858.827 1662.08 858.737 1662.36 855.576 1660.77 C 858.205 1658.2 887.246 1655.97 892.677 1655.41 z"/>
<path transform="translate(0,0)" fill="rgb(201,170,183)" d="M 888.85 1683.4 C 892.113 1682.87 895.552 1683.08 898.881 1683.12 C 897.093 1685.87 872.051 1687.91 867.238 1688.39 C 862.598 1689.02 861.453 1689.51 857.157 1688.14 L 857.929 1687.16 C 865.413 1684.9 880.369 1684.12 888.85 1683.4 z"/>
<path transform="translate(0,0)" fill="rgb(201,170,183)" d="M 899.039 1599.71 L 899.634 1600.65 C 896.434 1603.02 863.377 1606.76 857.271 1607.43 L 856.727 1606.68 L 857.529 1605.42 C 865.896 1603.23 889.925 1600.35 899.039 1599.71 z"/>
<path transform="translate(0,0)" fill="none" d="M 916.523 1553.32 C 920.167 1553.46 918.685 1552.8 921.225 1555.11 C 922.48 1558.11 923.09 1561.21 923.069 1564.48 C 922.744 1613.97 923.325 1663.47 923.068 1712.96 C 923.047 1716.99 922.26 1727.42 917.6 1728.11 C 902.691 1730.33 818.403 1745.26 809.446 1741.66 C 805.014 1735.41 806.262 1695.83 806.18 1685.12 C 805.995 1660.9 806.11 1636.67 806.525 1612.45 C 806.624 1604.29 805.528 1576.47 809.404 1571.11 C 813.276 1568.83 817.232 1568.72 821.767 1568.08 C 825.997 1567.42 825.903 1567.36 830.096 1567.98 L 831.449 1570.81 C 828.062 1575.76 820.525 1577.19 814.953 1578.62 C 815.263 1629.25 814.165 1681.04 815.133 1731.57 C 828.287 1730.63 845.453 1727.7 858.76 1725.79 C 876.385 1723.26 895.618 1720.82 912.939 1717.43 C 913.839 1700.01 913.213 1677.66 913.227 1659.93 C 913.231 1627.53 913.468 1595.13 913.938 1562.73 C 907.353 1563.52 902.752 1564.96 896.935 1561.95 L 896.481 1560.21 C 901.694 1554.29 908.603 1554.44 916.523 1553.32 z"/>
<path transform="translate(0,0)" fill="none" d="M 859.417 1540.02 C 870.679 1540.97 870.897 1541.67 873.492 1552.26 C 878.721 1556.52 881.893 1552.15 889.753 1552.3 C 892.376 1554.34 892.297 1554.07 893.06 1557.64 C 897.209 1577.03 882.57 1574.78 865.239 1576.88 C 855.278 1578 845.338 1579.31 835.425 1580.81 C 832.933 1567.01 829.943 1560.05 847.167 1558.81 C 850.184 1550.6 852.172 1545.02 859.417 1540.02 z"/>
<path transform="translate(0,0)" fill="rgb(201,170,183)" d="M 860.612 1543.98 C 865.577 1544.12 866.801 1543.68 869.217 1548.22 C 867.967 1554.61 864.414 1556.36 858.286 1556.44 C 856.636 1553.03 855.066 1549.4 857.145 1545.96 L 858.705 1546.17 L 859.462 1549.77 L 860.954 1550.68 C 863.371 1548.86 862.43 1550.02 863.182 1546.62 L 860.612 1543.98 z"/>
<path transform="translate(0,0)" fill="rgb(201,170,183)" d="M 809.556 1819 L 836.337 1818.99 C 838.655 1827.27 838.971 1828.89 839.924 1837.56 C 843.753 1839.42 847.126 1841.45 850.792 1843.59 C 856.421 1838.55 859.066 1836.14 865.396 1832.14 C 872.5 1838.57 879.201 1845.44 885.463 1852.69 C 882.937 1858.48 879.344 1863.86 876.004 1869.24 L 880.892 1881.42 C 886.127 1882.7 893.813 1883.96 897.786 1887.06 C 899.783 1893.72 899.814 1907.66 897.554 1914.29 C 892.832 1918.29 886.563 1918.51 880.425 1919.34 C 879 1924.01 877.221 1928.25 875.421 1932.77 C 880.204 1938.86 882.518 1941.64 886.033 1948.45 C 879.62 1955.84 873.065 1963.1 866.371 1970.24 C 861.674 1967.43 855.448 1962.63 850.849 1959.28 C 846.279 1961.06 844.061 1962.34 839.782 1964.8 C 838.675 1972.63 838.406 1975.99 835.724 1983.49 C 827.483 1983.97 818.011 1983.95 809.666 1984.14 C 808.098 1978.22 806.936 1970.93 805.805 1964.78 L 795.834 1959.93 C 790.152 1964.2 785.699 1967.35 779.72 1971.18 C 774.503 1965.98 764.338 1956.52 760.724 1950.7 C 764.276 1943.44 765.894 1940.65 770.497 1934.02 C 769.167 1930.12 767.512 1926.14 765.988 1922.3 C 758.955 1921.08 754.912 1920.04 748.038 1918.03 L 747.928 1889.69 C 755.017 1886.65 757.568 1886.07 765.13 1884.36 C 766.663 1879.87 767.792 1875.28 769.007 1870.69 C 764.07 1864.19 762.548 1861.3 759.412 1854.09 C 765.364 1847.55 773.538 1839.33 779.863 1833.21 C 784.914 1836.19 790.158 1840.44 794.886 1844.02 L 805.69 1838.19 C 806.828 1830.94 807.754 1826.1 809.556 1819 z"/>
<path transform="translate(0,0)" fill="none" d="M 812.439 1822.38 C 819.522 1822.35 826.604 1822.26 833.685 1822.1 C 835.377 1829.14 835.756 1832.98 836.36 1840.15 L 851.404 1847.53 C 855.991 1843.71 860.457 1840.44 865.257 1836.91 C 871.177 1842.79 875.807 1847.14 882.156 1852.53 C 878.73 1858.76 875.942 1862.48 871.744 1868.2 C 874.319 1874.45 875.749 1879.15 877.693 1885.6 C 885.204 1886.78 888.309 1887.23 895.455 1889.66 L 895.492 1913.13 C 890.06 1914.76 883.399 1915.8 877.749 1916.86 C 876.361 1921.37 873.261 1928.69 871.465 1933.25 C 875.258 1937.98 878.684 1943.43 882.041 1948.51 C 875.314 1954.84 871.717 1958.61 865.805 1965.7 C 860.539 1961.83 856.207 1958.82 850.697 1955.33 C 846.683 1957.46 840.763 1959.83 836.471 1961.7 C 835.892 1966.94 835.669 1977.11 832.018 1980.26 L 812.879 1980.76 L 808.447 1961.17 C 803.175 1959.45 799.667 1958.04 794.664 1955.89 L 780.105 1967.07 C 775.951 1961.94 769.399 1955.73 764.579 1950.92 C 768.401 1944.01 770.034 1941.06 774.925 1934.94 C 772.973 1929.77 770.65 1924.28 768.568 1919.12 C 761.951 1917.57 757.66 1916.16 751.22 1913.94 L 751.012 1891.7 C 756.333 1890.11 762.779 1888.71 768.27 1887.38 C 770.117 1880.65 771.441 1877.6 774.201 1871.24 C 769.898 1865.26 767.176 1861.37 763.571 1854.97 C 769.473 1849.23 774.616 1843.49 780.123 1837.41 L 794.355 1848.36 L 809.12 1840.53 C 809.978 1833.64 810.383 1829.03 812.439 1822.38 z"/>
<path transform="translate(0,0)" fill="rgb(201,170,183)" d="M 820.075 1866.07 C 860.317 1864.89 868.467 1925.63 826.6 1936.02 C 784.778 1937.88 778.075 1875.88 820.075 1866.07 z"/>
<path transform="translate(0,0)" fill="none" d="M 819.499 1869.13 C 856.357 1869.42 864.419 1922.31 826.231 1932.81 C 792.518 1935.68 780.277 1881.48 819.499 1869.13 z"/>
<path transform="translate(0,0)" fill="rgb(201,170,183)" d="M 1170.95 1810.28 C 1186.44 1813.95 1214.72 1824.67 1230.42 1830.25 C 1260.5 1840.94 1292.19 1851.53 1321.96 1862.82 C 1321.66 1874.16 1321.97 1886.24 1322.07 1897.63 C 1315.35 1896 1306.75 1892.87 1300.1 1890.64 C 1257.09 1876.26 1213.63 1862.97 1170.66 1848.5 C 1171.09 1836.26 1170.88 1822.63 1170.95 1810.28 z"/>
<path transform="translate(0,0)" fill="none" d="M 1173.96 1814.37 C 1180.37 1816.46 1187.13 1818.81 1193.44 1821.18 C 1234.75 1836.65 1278 1849.53 1318.92 1865.79 L 1318.53 1892.62 C 1270.47 1876.7 1222.27 1861.21 1173.94 1846.15 C 1173.44 1835.88 1173.82 1824.71 1173.96 1814.37 z"/>
<path transform="translate(0,0)" fill="rgb(201,170,183)" d="M 1170.96 1749.89 C 1188.04 1754.35 1220.59 1767.62 1238.13 1774.56 C 1264.97 1785.19 1295.93 1796.11 1322.02 1807.71 C 1321.94 1819.42 1322.1 1831.13 1322.48 1842.83 C 1272.03 1823.92 1221.46 1805.32 1170.77 1787.03 C 1171.13 1775.07 1170.91 1761.95 1170.96 1749.89 z"/>
<path transform="translate(0,0)" fill="none" d="M 1173.98 1754.26 C 1219.84 1769.93 1272.87 1792.16 1318.98 1809.93 L 1318.86 1837.37 C 1305.51 1833.33 1283.2 1824.21 1269.52 1819.13 C 1237.74 1807.28 1205.88 1795.66 1173.94 1784.27 L 1173.98 1754.26 z"/>
<path transform="translate(0,0)" fill="rgb(201,170,183)" d="M 1170.4 1871.87 C 1221.04 1886.07 1271.43 1902.74 1322.17 1916.96 L 1322.06 1951.77 C 1307.12 1948.37 1288.93 1942.91 1273.97 1938.81 C 1239.58 1929.11 1205.13 1919.61 1170.62 1910.32 L 1170.4 1871.87 z"/>
<path transform="translate(0,0)" fill="none" d="M 1173.72 1876.44 C 1181.19 1878.5 1188.85 1880.87 1196.26 1883.21 C 1236.97 1896.06 1278.41 1907.23 1319.02 1920.36 L 1318.84 1947.22 C 1271.16 1935.5 1222 1920.09 1173.88 1907.84 C 1173.39 1897.81 1173.67 1886.57 1173.72 1876.44 z"/>
<path transform="translate(0,0)" fill="rgb(201,170,183)" d="M 981.557 1469.34 C 989.828 1473.2 998.771 1478.22 1006.9 1482.55 C 1007.12 1494 1007.92 1583.44 1005.42 1586.83 C 1002.19 1576.46 1003.31 1499.56 1003.27 1484.46 C 997.245 1481.49 990.813 1477.76 984.883 1474.47 L 984.93 1655.25 C 984.628 1691.36 984.558 1727.48 984.719 1763.6 C 989.112 1765.21 993.971 1766.56 996.931 1770.11 L 995.764 1770.98 C 990.309 1770.71 986.061 1768.46 980.956 1766.34 C 981.478 1705.15 981.608 1643.97 981.348 1582.78 C 981.178 1548.2 979.684 1502.9 981.557 1469.34 z"/>
<path transform="translate(0,0)" fill="rgb(201,170,183)" d="M 1222.99 1954.26 C 1237.47 1957.19 1269.04 1965.02 1281.95 1969.95 C 1281.84 1983.68 1282.78 2035.71 1280 2045.54 C 1278.25 2041.76 1278.98 1980.44 1279 1971.81 C 1271.88 1970.51 1262.52 1967.65 1255.37 1965.69 C 1254.81 1986.38 1255.05 2007.75 1255.03 2028.5 C 1255.1 2035.22 1255.53 2039.4 1253.56 2045.88 C 1251.38 2042.26 1252.09 1974.56 1252.1 1964.76 C 1243.76 1962.9 1234.33 1960.08 1226 1957.81 L 1225.95 2005.34 C 1225.97 2017.53 1227.2 2034.8 1224.5 2046.07 C 1222.23 2041.51 1223.05 1965.75 1222.99 1954.26 z"/>
<path transform="translate(0,0)" fill="url(#Gradient1)" d="M 669.923 1776.22 L 674.768 1775.27 C 675.174 1778.7 675.073 1784.83 676.384 1787.54 L 679.995 1789.76 L 675.269 1791.53 L 674.986 1794.23 C 676.803 1795.73 676.794 1795.67 678.977 1796.59 L 678.681 1797.89 L 675.171 1798.72 C 674.569 1800.11 674.402 1799.91 674.837 1801.01 C 678.483 1810.2 671.195 1823.67 677.555 1829.53 C 671.429 1840.24 676.444 1843.43 675.797 1855.09 C 674.642 1875.88 674.207 1896.74 674.227 1917.57 C 673.986 1946.13 673.932 1974.69 674.065 2003.25 C 674.071 2012.08 674.524 2039.25 673.106 2046.25 C 671.641 2026.08 676.549 1931.46 671.039 1921.71 C 669.927 1914.24 670.152 1886.02 670.084 1877.24 L 669.923 1776.22 z"/>
<path transform="translate(0,0)" fill="rgb(201,170,183)" d="M 671.039 1921.71 C 676.549 1931.46 671.641 2026.08 673.106 2046.25 L 672.837 2048 L 671.931 2048 C 670.271 2041.72 670.864 2012.54 670.874 2004.76 L 671.039 1921.71 z"/>
<path transform="translate(0,0)" fill="rgb(201,170,183)" d="M 822.66 338.368 C 857.001 338.962 889.775 338.214 923.893 338.226 C 925.482 374.114 923.858 417.616 924.531 454.748 C 919.757 457.998 915.236 462.984 911.095 467.146 L 901.421 475.524 C 874.182 474.641 846.025 475.097 818.65 474.817 C 817.996 457.672 815.898 348.582 819.212 340.635 C 819.877 339.04 821.174 338.999 822.66 338.368 z"/>
<path transform="translate(0,0)" fill="none" d="M 827.522 341.45 C 858.477 340.967 889.963 341.308 921.01 341.118 L 921.038 452.093 C 915.156 451.925 901.618 450.269 897.783 454.238 C 897.224 459.887 897.237 465.925 897.115 471.629 C 875.566 472.945 843.616 472.054 821.303 472.101 L 820.957 390.001 C 820.929 375.408 820.424 357.919 821.368 343.725 C 823.345 341.447 823.688 342.109 827.522 341.45 z"/>
<path transform="translate(0,0)" fill="rgb(201,170,183)" d="M 877.674 436.534 C 883.836 436.46 904.346 433.746 906.569 439.398 C 902.469 442.238 874.327 440.667 866.75 440.596 C 859.388 440.283 840.487 443.093 835.813 438.237 C 838.302 436.149 872.065 436.686 877.674 436.534 z"/>
<path transform="translate(0,0)" fill="rgb(201,170,183)" d="M 841.534 391.493 C 849.977 391.296 902.78 390.059 907.018 392.758 C 904.991 395.297 906.337 394.323 902.25 394.866 C 894.934 394.91 838.233 396.266 835.955 393.532 C 838.184 391.282 837.582 391.997 841.534 391.493 z"/>
<path transform="translate(0,0)" fill="rgb(201,170,183)" d="M 835.116 360.403 C 849.677 358.614 888.326 360.758 904.559 360.397 C 906.383 360.356 906.337 361.185 907.621 363.04 C 896.412 365.099 852.115 363.458 838.135 363.43 C 836.36 363.427 836.359 362.397 835.116 360.403 z"/>
<path transform="translate(0,0)" fill="rgb(201,170,183)" d="M 876.612 421.492 C 884.291 421.443 901.34 420.008 906.847 423.695 L 905.923 424.638 C 893.101 425.489 879.866 425.297 866.99 425.327 C 859.264 425.405 841.558 426.823 835.823 423.407 L 836.441 422.374 C 848.092 421.335 864.511 421.599 876.612 421.492 z"/>
<path transform="translate(0,0)" fill="rgb(201,170,183)" d="M 834.975 376.446 C 843.151 375.563 899.866 375.217 906.285 376.551 L 907.679 378.85 C 890.459 380.701 857.043 378.959 838.585 379.354 C 836.426 379.4 836.609 378.633 834.975 376.446 z"/>
<path transform="translate(0,0)" fill="rgb(201,170,183)" d="M 834.842 407.472 C 850.473 405.168 883.645 407.513 900.644 406.811 C 904.932 406.634 905.6 407.111 907.684 409.437 C 905.859 409.73 904.806 409.928 902.449 409.911 C 880.852 409.754 858.639 410.931 837.145 409.729 C 836.377 408.977 835.61 408.225 834.842 407.472 z"/>
<path transform="translate(0,0)" fill="rgb(201,170,183)" d="M 835.609 452.386 C 841.076 451.973 859.764 450.968 864.352 453.099 L 864.88 455.564 C 858.174 455.71 842.881 456.345 836.722 454.685 L 835.609 452.386 z"/>
<path transform="translate(0,0)" fill="none" d="M 901.596 455.089 C 905.376 455.049 911.379 454.691 914.353 456.818 C 913.802 459.725 913.182 459.35 910.311 461.814 C 907.703 464.236 905.251 467.296 901.666 466.702 C 900.085 463.363 901.149 458.942 901.596 455.089 z"/>
<path transform="translate(0,0)" fill="rgb(201,170,183)" d="M 731.657 1192.03 C 749.222 1192.34 768.732 1191.48 785.992 1192.72 L 786.169 1193.51 C 779.095 1196.19 744.607 1195.08 734.48 1195.05 C 735.408 1228.23 734.905 1263.82 735 1297.1 C 754.959 1297.56 774.925 1297.59 794.885 1297.19 C 797.556 1288.1 801.524 1279.49 811.452 1276.45 C 817.287 1274.73 823.574 1275.5 828.818 1278.59 C 834.216 1281.72 838.153 1286.87 839.769 1292.89 C 843.779 1308.26 833.732 1318.25 819.733 1322.08 C 818.998 1342.52 819.228 1363.97 819.153 1384.49 C 798.789 1384.57 777.597 1383.85 757.337 1384.47 C 756.645 1386.6 755.867 1388.7 755.005 1390.76 C 749.757 1403.07 737.965 1409.81 725.172 1403.81 C 718.982 1400.87 714.322 1395.45 712.341 1388.89 C 707.417 1372.51 718.265 1363.78 732.37 1359.46 C 731.586 1340.77 732.036 1319.05 731.965 1300.13 L 682.153 1300.12 L 587.323 1300.2 C 582.748 1314.02 580.559 1318.24 565.819 1322.05 C 565.358 1334.14 565.724 1346.91 565.864 1359.05 C 580.609 1364.79 583.732 1367.66 587.394 1383.08 C 583.764 1397.98 573.03 1410.83 556.457 1403.95 C 550.348 1401.35 545.584 1396.34 543.29 1390.1 C 537.39 1374.06 549.086 1364.15 562.882 1359.45 C 562.981 1346.91 562.617 1335.37 562.136 1322.85 C 553.258 1319.65 545.921 1316.11 542.443 1306.55 C 540.379 1300.74 540.803 1294.33 543.615 1288.84 C 546.556 1283.11 551.66 1278.79 557.796 1276.83 C 573.432 1271.87 583.783 1282.82 587.395 1297.06 C 635.589 1297.54 683.787 1297.53 731.981 1297.04 L 731.657 1192.03 z"/>
<path transform="translate(0,0)" fill="none" d="M 735.108 1300.11 C 754.927 1300.11 774.746 1300.24 794.563 1300.51 C 799.706 1314.86 802.137 1317.61 816.126 1322.4 C 817.151 1341.95 816.731 1362.22 816.341 1381.79 C 796.726 1381.93 777.11 1381.9 757.496 1381.69 C 753.496 1368.21 748.902 1362.97 735.132 1359.44 L 735.108 1300.11 z"/>
<path transform="translate(0,0)" fill="none" d="M 558.596 1279.64 C 565.416 1277.73 572.734 1279.67 577.717 1284.7 C 582.699 1289.74 584.563 1297.07 582.586 1303.87 C 580.609 1310.67 575.102 1315.87 568.198 1317.45 C 557.873 1319.81 547.551 1313.5 544.944 1303.23 C 542.337 1292.97 548.396 1282.5 558.596 1279.64 z"/>
<path transform="translate(0,0)" fill="none" d="M 729.026 1363.91 C 739.502 1361.25 750.137 1367.63 752.741 1378.11 C 755.344 1388.6 748.924 1399.21 738.424 1401.76 C 727.993 1404.3 717.471 1397.93 714.884 1387.51 C 712.298 1377.09 718.619 1366.54 729.026 1363.91 z"/>
<path transform="translate(0,0)" fill="none" d="M 561.246 1363.75 C 571.796 1362.18 581.651 1369.38 583.345 1379.92 C 585.038 1390.45 577.938 1400.38 567.425 1402.19 C 560.522 1403.38 553.513 1400.76 549.073 1395.34 C 544.633 1389.93 543.446 1382.54 545.964 1376.01 C 548.483 1369.47 554.319 1364.79 561.246 1363.75 z"/>
<path transform="translate(0,0)" fill="none" d="M 812.582 1279.75 C 819.361 1277.76 826.685 1279.61 831.705 1284.58 C 836.725 1289.55 838.646 1296.85 836.721 1303.65 C 834.795 1310.45 829.328 1315.66 822.447 1317.26 C 812.22 1319.64 801.955 1313.45 799.285 1303.3 C 796.614 1293.14 802.507 1282.71 812.582 1279.75 z"/>
<path transform="translate(0,0)" fill="rgb(201,170,183)" d="M 1407.83 1328.89 C 1422.04 1339.48 1452.09 1347.59 1469.06 1351.72 C 1465.35 1423.57 1475.75 1438.94 1408.73 1477.52 C 1380.44 1462.65 1352.78 1446.02 1350.1 1411.95 C 1348.56 1392.23 1347.2 1372.17 1346.68 1352.43 C 1352.35 1350.48 1361.04 1348.63 1367.2 1346.8 C 1382.46 1342.29 1394.18 1336.91 1407.83 1328.89 z"/>
<path transform="translate(0,0)" fill="none" d="M 1406.27 1333.78 C 1409.56 1333.16 1423.9 1341.14 1428.05 1343.05 C 1441.18 1349.11 1451.54 1351.71 1465.4 1354.64 C 1464.76 1374.5 1463.83 1402.26 1460.44 1421.52 C 1456.15 1445.85 1428.87 1460.5 1408.51 1472.84 C 1403.47 1472.32 1377.48 1453.58 1372.16 1448.65 C 1353.16 1431.04 1353 1412.92 1351.59 1388.91 C 1350.88 1377.39 1350.33 1365.87 1349.92 1354.34 C 1374.17 1349.36 1384.79 1345.69 1406.27 1333.78 z"/>
<path transform="translate(0,0)" fill="rgb(201,170,183)" d="M 1406.62 1342.91 C 1409.49 1343.15 1428.46 1352.4 1433.36 1354.17 C 1442.06 1357.32 1446.81 1358.74 1456.14 1360.88 C 1455.48 1378.22 1454.83 1402.06 1452.07 1418.93 C 1448.7 1439.52 1425.64 1452.66 1408.73 1463.03 C 1402.5 1462.28 1382.87 1446.75 1377.33 1442.22 C 1358.07 1426.49 1359.47 1386.23 1358.84 1361.05 C 1380.52 1355.99 1387.14 1353.52 1406.62 1342.91 z"/>
<path transform="translate(0,0)" fill="none" d="M 1407.3 1346.94 C 1408.02 1347.08 1425.55 1355.41 1427.85 1356.4 C 1437.12 1360.41 1442.54 1361.86 1452.46 1364.33 C 1450.2 1421.14 1457.71 1427.15 1408.19 1458.99 C 1359.61 1434.7 1364.37 1411.58 1361.91 1364.61 C 1380.94 1359.82 1389.94 1356.26 1407.3 1346.94 z"/>
<path transform="translate(0,0)" fill="rgb(201,170,183)" d="M 1401.13 1367.08 C 1425.49 1364.9 1419.58 1374.26 1425.23 1390.2 C 1426.89 1390.64 1430.79 1391.38 1431.06 1393.1 C 1432.41 1401.68 1433.64 1420.74 1430.04 1428.34 C 1426.6 1429.76 1418.35 1429.42 1414.23 1429.47 C 1404.16 1429.52 1394.17 1429.78 1384.15 1428.75 C 1383.89 1420.82 1382.12 1397.49 1385.75 1391.97 C 1388.24 1391.32 1388.6 1391.28 1390.88 1390.13 C 1394.8 1376.94 1388.1 1376.37 1401.13 1367.08 z"/>
<path transform="translate(0,0)" fill="none" d="M 1387.02 1394.16 C 1400.95 1393.99 1414.88 1393.92 1428.81 1393.96 C 1429.15 1403.03 1429.67 1417.55 1428.62 1426.19 C 1414.76 1426.38 1400.9 1426.5 1387.04 1426.53 L 1387.02 1394.16 z"/>
<path transform="translate(0,0)" fill="rgb(201,170,183)" d="M 1405.98 1400.1 C 1408.45 1400.86 1408.33 1400.97 1410.31 1402.71 C 1411.49 1406.4 1410.6 1415.84 1409.93 1419.93 C 1407.15 1419.69 1408.41 1420.13 1406.07 1418.44 C 1404.44 1412.49 1403.68 1405.94 1405.98 1400.1 z"/>
<path transform="translate(0,0)" fill="none" d="M 1402.93 1370.94 C 1414.25 1370.3 1423.68 1377.37 1420.09 1388.98 C 1417.66 1391.37 1418.56 1390.62 1414.25 1390.96 C 1408.25 1390.94 1402.16 1390.78 1396.15 1390.67 C 1395 1380.21 1393.99 1377.8 1402.93 1370.94 z"/>
<path transform="translate(0,0)" fill="rgb(201,170,183)" d="M 646.776 1773.11 C 648.937 1776.54 648.162 1853.99 648.299 1866.34 C 639.099 1871.77 608.23 1884.15 597.228 1888.39 C 575.296 1896.84 545.016 1911.84 523.546 1918.45 C 522.805 1890.01 523.754 1860.32 523.174 1831.51 C 563.348 1813.69 607.101 1792.38 646.776 1773.11 z"/>
<path transform="translate(0,0)" fill="none" d="M 607.342 1795.78 C 609.078 1795.62 608.189 1795.48 609.961 1796.44 C 611.008 1804.16 610.778 1817.44 610.83 1825.51 L 610.844 1878.88 C 600.256 1884.4 582.402 1891.18 570.815 1896.06 L 568.593 1896.53 C 566.811 1893.73 567.654 1825.54 567.835 1815.41 C 580.253 1808.56 594.467 1802 607.342 1795.78 z"/>
<path transform="translate(0,0)" fill="none" d="M 563.778 1817 C 565.848 1825.94 564.712 1884.71 564.823 1898.25 C 553.145 1904.01 539.793 1908.08 527.399 1914.17 C 525.058 1908.11 526.632 1845.52 526.767 1834.38 C 535.769 1829.07 553.928 1821.42 563.778 1817 z"/>
<path transform="translate(0,0)" fill="none" d="M 644.814 1778.01 C 645.538 1784.66 645.134 1801.41 645.113 1808.6 C 644.974 1827.37 645.012 1846.14 645.228 1864.91 L 614.279 1877.36 C 612.664 1854.22 613.821 1817.03 613.979 1793.26 C 623.713 1788.13 634.865 1782.92 644.814 1778.01 z"/>
<path transform="translate(0,0)" fill="rgb(201,170,183)" d="M 1149.34 1276.11 C 1162.03 1275.2 1173.29 1278.95 1176.6 1292.72 C 1178.1 1298.81 1177.09 1305.25 1173.79 1310.59 C 1169.54 1317.43 1164.46 1319.9 1156.97 1321.62 C 1156.7 1333.96 1156.64 1346.3 1156.78 1358.64 C 1166.29 1362.31 1174.06 1366.8 1176.71 1377.49 C 1178.17 1383.4 1177.16 1389.65 1173.9 1394.8 C 1168.54 1403.14 1161.86 1404.73 1153.08 1406.41 C 1139.91 1402.58 1135.19 1397.63 1132.17 1384.22 C 1121.61 1384.11 1110.79 1384.27 1100.21 1384.31 L 1098.46 1385.35 C 1095.43 1394.48 1091.29 1403.97 1081.05 1405.86 C 1063.6 1409.06 1055.71 1396.02 1052.49 1382.27 C 1056.28 1367.74 1059.64 1364.25 1073.93 1359.4 C 1074.29 1338.97 1073.96 1317.43 1073.93 1296.92 C 1093.17 1297.16 1112.4 1297.24 1131.64 1297.18 C 1134.97 1284.56 1137.9 1281.54 1149.34 1276.11 z"/>
<path transform="translate(0,0)" fill="none" d="M 1077.04 1300.17 C 1095.22 1300.09 1113.41 1300.18 1131.59 1300.45 C 1135.38 1315.2 1139.51 1318.08 1153.53 1322.3 C 1153.67 1334.52 1153.68 1346.75 1153.57 1358.98 C 1146.83 1361.33 1144.63 1362.14 1138.93 1366.39 C 1134.45 1371.74 1133.61 1374.89 1131.82 1381.33 C 1120.81 1381.45 1109.79 1381.39 1098.78 1381.14 C 1094.45 1367.71 1091.28 1363.59 1077.12 1359.62 C 1076.73 1340.12 1077.04 1319.73 1077.04 1300.17 z"/>
<path transform="translate(0,0)" fill="none" d="M 1150.55 1363.77 C 1161.1 1361.53 1171.47 1368.29 1173.67 1378.86 C 1175.86 1389.42 1169.05 1399.76 1158.47 1401.91 C 1152.69 1403.08 1146.69 1401.57 1142.15 1397.8 C 1137.61 1394.03 1135.03 1388.4 1135.12 1382.5 C 1135.27 1373.43 1141.67 1365.66 1150.55 1363.77 z"/>
<path transform="translate(0,0)" fill="none" d="M 1149.61 1279.68 C 1156.44 1277.82 1163.73 1279.84 1168.63 1284.93 C 1173.54 1290.03 1175.28 1297.39 1173.17 1304.14 C 1171.06 1310.89 1165.44 1315.95 1158.51 1317.35 C 1152.76 1318.51 1146.79 1317 1142.28 1313.24 C 1137.77 1309.48 1135.21 1303.87 1135.32 1298 C 1135.48 1289.4 1141.3 1281.93 1149.61 1279.68 z"/>
<path transform="translate(0,0)" fill="none" d="M 1073.54 1363.84 C 1084.16 1362.79 1093.63 1370.52 1094.71 1381.14 C 1095.79 1391.75 1088.07 1401.24 1077.45 1402.34 C 1066.81 1403.44 1057.29 1395.69 1056.21 1385.05 C 1055.13 1374.4 1062.9 1364.9 1073.54 1363.84 z"/>
<path transform="translate(0,0)" fill="rgb(201,170,183)" d="M 645.62 1672.9 C 646.741 1673.15 646.035 1672.92 647.573 1673.99 C 648.494 1680.6 648.074 1692.64 648.062 1699.64 L 648.171 1742.15 C 636.93 1749.3 611.639 1760.39 598.964 1766.54 L 524.938 1803.09 L 523.785 1802.21 C 522.678 1798.05 523 1749.17 522.98 1740.96 L 645.62 1672.9 z"/>
<path transform="translate(0,0)" fill="none" d="M 609.152 1696.96 L 610.032 1697.27 C 611.69 1701.33 610.711 1748.96 610.634 1756.78 C 597.542 1763.96 582.172 1771.1 568.708 1777.62 L 567.503 1776.52 C 566.625 1759.2 567.106 1738.29 567.064 1720.7 C 578.051 1713.69 597.659 1702.93 609.152 1696.96 z"/>
<path transform="translate(0,0)" fill="none" d="M 562.807 1723.06 C 564.833 1726.58 564.041 1772.42 564.066 1779.89 C 552.283 1786.21 539.368 1792.43 527.359 1798.6 C 525.277 1792.29 526.132 1752.25 526.353 1743.31 C 537.363 1736.21 551.118 1729.28 562.807 1723.06 z"/>
<path transform="translate(0,0)" fill="none" d="M 643.594 1677.92 C 646.147 1680.8 645.012 1732.53 645.014 1740.31 C 635.601 1745.67 625.187 1750.31 615.342 1754.93 C 612.613 1751.27 613.97 1702.3 614.11 1694.3 C 622.366 1689.16 634.787 1682.76 643.594 1677.92 z"/>
<path transform="translate(0,0)" fill="rgb(201,170,183)" d="M 1467.24 1108.3 C 1482.03 1108.64 1496.3 1107.97 1511.12 1108.99 C 1511.5 1130.14 1505.92 1150.98 1495 1169.1 C 1475.49 1201.92 1449.01 1217.56 1413.01 1226.92 L 1413.84 1249.79 C 1408.89 1246.45 1404.87 1242.74 1400.38 1238.82 C 1388.61 1227.8 1376.13 1216.26 1365.32 1204.36 C 1380.21 1189.51 1393.71 1169.86 1409.98 1154.17 C 1411.01 1161.4 1411.44 1171.38 1412.12 1178.95 C 1447.86 1167.79 1462.92 1144.19 1467.24 1108.3 z"/>
<path transform="translate(0,0)" fill="none" d="M 1470.39 1112.11 C 1482.53 1112.37 1495.68 1112.05 1507.9 1111.96 C 1503.17 1173.13 1468.65 1209.77 1409.87 1224.27 L 1410.09 1242.81 C 1405.79 1238.84 1401.53 1234.84 1397.29 1230.82 C 1388.2 1221.82 1378.51 1214.22 1370.6 1203.98 C 1380.15 1192.7 1397.16 1170.57 1407.8 1161.95 L 1409.1 1183.43 C 1419.92 1180.89 1430.09 1176.15 1438.99 1169.51 C 1459.33 1154.42 1466.93 1136.32 1470.39 1112.11 z"/>
<path transform="translate(0,0)" fill="rgb(201,170,183)" d="M 1349.17 958.581 C 1358.47 963.665 1389.68 994.218 1398.4 1002.98 C 1382.56 1019.49 1368.29 1039.25 1352.75 1055.46 C 1351.75 1046.99 1352.11 1038.2 1350.98 1028.75 C 1348.7 1029.36 1346.45 1030.11 1344.25 1030.98 C 1323 1039.25 1311.46 1054.46 1302.67 1074.6 C 1300.61 1081.83 1299.05 1090.75 1297.54 1098.23 C 1282.41 1097.76 1267.27 1098 1252.17 1098.94 C 1256.98 1035.34 1288.93 998.581 1349.19 981.268 C 1348.98 973.644 1349.08 966.206 1349.17 958.581 z"/>
<path transform="translate(0,0)" fill="none" d="M 1352.02 965.388 C 1358.18 968.779 1386.13 996.542 1393.17 1003.35 C 1384.44 1015.08 1365.16 1036.32 1355.21 1047.47 C 1355.07 1038.25 1355.09 1033.13 1353.71 1024.06 C 1327.55 1032.45 1308.6 1047.94 1299.73 1074.44 C 1297.72 1081.12 1296.62 1086.21 1295.21 1093.06 C 1282.87 1092.87 1268.63 1093.54 1256.16 1093.86 C 1256.89 1075.57 1261.9 1057.72 1270.78 1041.73 C 1289.89 1007.25 1316.64 993.853 1352.76 983.496 C 1352.14 977.778 1352.16 971.199 1352.02 965.388 z"/>
<path transform="translate(0,0)" fill="rgb(201,170,183)" d="M 1023.86 350.903 C 1035.24 350.302 1037.97 353.068 1040.35 364.119 C 1080.82 380.689 1063 403.434 1071.42 434.758 C 1073.4 442.096 1085.56 446.7 1083.32 458.411 C 1077.83 459.865 1054.37 459.225 1047.11 459.177 C 1043.74 467.95 1042.75 470.002 1034.41 474.023 C 1020.14 476.7 1015.73 470.676 1009.76 459.275 C 1002.17 459.23 982.12 459.791 975.78 458.557 C 971.792 448.065 984.958 442.964 986.504 436.943 C 994.934 404.117 978.627 384.007 1016.69 363.951 C 1018.42 357.52 1019.15 355.592 1023.86 350.903 z"/>
<path transform="translate(0,0)" fill="none" d="M 1019.93 367.194 C 1072.04 364.458 1062.66 399.962 1067.7 435.27 C 1068.7 442.23 1081.57 449.736 1078.82 455.126 C 1072.97 456.85 1045.69 456.108 1038.26 456.062 C 1017.57 456.168 996.885 456.151 976.197 456.013 C 978.933 451.324 988.161 442.097 989.096 438.912 C 998.384 407.272 980.851 384.867 1019.93 367.194 z"/>
<path transform="translate(0,0)" fill="rgb(201,170,183)" d="M 1014.86 377.602 C 1017.92 378.235 1016.7 377.442 1018.85 379.517 C 1017.04 382.945 1013.89 384.603 1010.85 387.564 C 1003.31 394.917 1004.09 406.041 1004.06 415.945 C 1003.24 416.923 1003.83 416.399 1001.97 417.081 C 999.744 413.292 1001.09 398.595 1002.1 394.148 C 1003.94 385.999 1008.14 381.871 1014.86 377.602 z"/>
<path transform="translate(0,0)" fill="none" d="M 1032.24 459.519 C 1036.94 459.224 1040.51 457.807 1042.09 462.589 C 1039.4 468.99 1031.39 471.271 1025.1 471.692 C 1021.42 469.614 1016.56 466.85 1015.34 462.611 L 1016.5 460.859 C 1020.93 458.797 1027.09 459.467 1032.24 459.519 z"/>
<path transform="translate(0,0)" fill="none" d="M 1025.16 353.745 C 1029.77 353.993 1037.21 356.096 1035.84 362.096 L 1034.06 363.083 C 1029.73 363.191 1024.86 363.972 1021.75 361.345 C 1021.56 358.144 1023.27 356.49 1025.16 353.745 z"/>
<path transform="translate(0,0)" fill="rgb(201,170,183)" d="M 1277.23 1109.47 C 1297.19 1119.66 1319.57 1129.37 1338.29 1141.43 L 1314.53 1148.23 C 1323.15 1164.74 1338.49 1173.32 1355.07 1180.2 C 1353.55 1193.27 1353.09 1213.8 1350.85 1225.16 C 1347.95 1226.03 1347.23 1225.2 1343.78 1224.31 C 1306.73 1212.22 1288.36 1196.75 1269.17 1163.54 C 1261.83 1166.3 1254.43 1168.91 1246.97 1171.35 C 1251.67 1158.28 1270.16 1120.71 1277.23 1109.47 z"/>
<path transform="translate(0,0)" fill="none" d="M 1278.42 1114.39 C 1293.95 1121.43 1313.29 1131.72 1328.26 1139.72 C 1321.79 1142.8 1315.68 1144.85 1308.93 1147.24 C 1319.66 1166.75 1331.52 1173.83 1351.22 1182.54 C 1350.77 1188.96 1349.31 1217.51 1346.32 1220.94 L 1343.63 1220.84 C 1304.36 1205.73 1292.77 1193.91 1270.54 1159.25 C 1266.08 1161.26 1258.84 1163.58 1254.01 1165.28 C 1262.11 1146.07 1268.7 1132.84 1278.42 1114.39 z"/>
<path transform="translate(0,0)" fill="rgb(201,170,183)" d="M 1412.02 980.627 C 1416.44 981.224 1421.82 982.595 1426.06 983.904 C 1455.45 992.717 1480.06 1012.96 1494.38 1040.09 C 1502.42 1037.4 1507.23 1036.46 1515.51 1035.12 C 1507.8 1053.36 1499.96 1071.54 1491.98 1089.67 C 1491.12 1091.46 1490.69 1092.14 1489.65 1093.82 C 1486.39 1094.01 1434.09 1068.75 1427.97 1065.14 C 1433.63 1062.58 1444.52 1059.41 1451.12 1057.01 C 1437.71 1040.14 1430.46 1034.59 1410.83 1026.37 C 1411.22 1011.05 1411.11 995.963 1412.02 980.627 z"/>
<path transform="translate(0,0)" fill="none" d="M 1415.25 984.43 C 1448.1 990.355 1476.45 1015.08 1491.95 1043.89 C 1497.55 1042.53 1503.38 1041.29 1509.03 1040.02 L 1490.04 1085.71 C 1488.26 1089.31 1489.5 1088.61 1486.87 1089.6 C 1473.35 1082.82 1449.01 1072.62 1438.06 1065.47 C 1444.1 1062.96 1450.36 1061.07 1456.58 1059.05 C 1444.16 1040.01 1434.13 1032.76 1413.93 1023.77 C 1414.16 1010.89 1414.88 997.412 1415.25 984.43 z"/>
<path transform="translate(0,0)" fill="rgb(201,170,183)" d="M 1095.49 321.525 C 1109.05 320.856 1120.62 331.224 1121.43 344.773 C 1122.25 358.322 1112 370.001 1098.46 370.959 C 1089.57 371.588 1081.03 367.394 1076.1 359.976 C 1071.16 352.559 1070.59 343.062 1074.6 335.106 C 1078.62 327.151 1086.59 321.965 1095.49 321.525 z"/>
<path transform="translate(0,0)" fill="none" d="M 1092.74 324.809 C 1104.28 322.853 1115.25 330.533 1117.36 342.046 C 1119.47 353.558 1111.93 364.63 1100.45 366.893 C 1092.88 368.385 1085.1 365.689 1080.08 359.837 C 1075.06 353.986 1073.57 345.884 1076.19 338.631 C 1078.81 331.379 1085.13 326.098 1092.74 324.809 z"/>
<path transform="translate(0,0)" fill="rgb(228,216,222)" d="M 632.242 800.248 C 631.914 795.899 632.609 794.516 628.507 792.89 C 626.129 795.656 627.105 794.077 626.39 798.374 C 629.51 798.544 628.362 797.903 630.428 799.493 C 629.243 803.514 628.868 799.011 623.323 802.048 C 622.945 804.803 622.552 807.444 622.34 810.222 C 626.62 809.242 628.152 809.128 632.558 808.936 L 633.15 807.756 L 628.862 805.698 L 628.6 804.022 L 630.804 802.107 L 633.106 802.955 C 635.28 805.71 633.599 806.118 634.68 810.849 C 636.464 811.17 637.424 811.398 639.158 811.839 C 639.348 815.25 639.861 813.804 638.383 816.501 C 633.825 815.332 635.794 813.471 631.342 811.492 L 629.432 814.385 L 627.318 812.596 L 626.424 814.998 L 624.954 814.909 L 624.539 812.609 C 624.005 813.924 621.751 819.512 622.313 820.69 L 624.287 820.737 L 627.182 817.237 L 629.176 817.207 L 631.579 819.95 C 631.492 823.142 630.701 822.803 627.73 825.892 L 628.082 827.463 C 632.592 829.251 636.295 833.542 638.889 833.616 L 639.013 831.207 C 640.749 831.522 639.946 831.113 641.266 832.705 C 639.096 835.703 640.401 835.151 637.709 835.701 C 632.105 832.008 628.481 831.818 624.398 829.116 C 621.478 829.88 617.984 833.77 615.606 835.997 L 613.207 829.376 C 611.029 831.675 614.435 829.756 613.111 834.796 L 611.302 834.091 C 611.132 831.82 611.236 832.484 610.506 830.136 C 606.456 829.158 605.117 828.896 601.379 827.201 L 600.996 825.429 C 603.618 822.483 602.287 822.807 605.084 822.39 L 604.421 825.815 C 607.827 827.03 609.04 827.264 611.596 825.065 C 611.917 822.572 611.062 821.592 609.927 819.271 L 607.077 818.457 L 607.173 818.351 C 605.693 820.763 605.727 821.192 603.46 822.766 L 602.014 822.104 C 600.088 819.564 600.33 817.524 600.046 814.242 L 599.93 812.802 L 598.599 812.789 C 595.803 817.71 600.165 821.129 596.711 826.074 L 595.15 826.109 L 594.735 823.536 C 591.594 822.511 592.523 823.258 590.39 821.12 C 591.691 818.631 591.996 819.096 594.886 817.447 L 592.941 813.77 C 593.449 810.551 592.818 811.968 595.035 809.431 C 597.405 809.645 596.645 809.707 599.005 809.272 C 600.329 806.098 599.91 803.692 599.791 800.234 C 592.548 801.447 571.523 821.663 569.378 829.738 C 569.043 830.999 563.446 843.333 563.2 843.492 C 562.924 832.435 577.452 813.485 586.269 806.561 C 601.33 794.707 620.478 789.313 639.512 791.562 C 662.698 796.134 675.256 803.011 688.802 823.103 C 690.807 826.077 691.626 827.107 692.85 830.593 L 692.215 831.044 C 687.674 827.182 686.983 824.626 684.272 819.653 C 677.368 806.992 652.501 792.346 638.532 793.428 C 638.232 797.19 638.07 799.704 637.32 803.382 L 635.771 803.764 C 633.384 801.935 632.795 802.234 632.242 800.248 z"/>
<path transform="translate(0,0)" fill="rgb(201,170,183)" d="M 821.386 1173.28 C 839.472 1174.28 839.148 1184.19 849.598 1194.46 C 853.228 1198.03 858.2 1199.9 863.284 1199.6 C 880.632 1198.65 882.729 1173.6 903.038 1173.69 C 924.803 1173.8 921.721 1201.18 943.779 1199.35 C 956.409 1198.29 959.611 1186.59 967.356 1179.42 C 984.097 1163.94 997.823 1178.82 1008.16 1192.51 C 1010.99 1196.23 1016.91 1200.03 1021.68 1199.9 C 1034.84 1200.08 1038.61 1186.28 1046.37 1179.86 C 1074.76 1156.41 1079.14 1196.73 1101.28 1199.63 C 1108.3 1200.55 1115.46 1193.62 1119.88 1189.55 L 1121.18 1189.8 L 1121.68 1191.38 C 1114.76 1200.37 1108.43 1203.36 1097.25 1202.69 C 1079.96 1198.42 1080.29 1181.85 1065.96 1177.58 C 1047.5 1172.08 1042.9 1195.38 1031.34 1200.56 C 1005.72 1212.05 1002.25 1181.24 985.697 1177.22 C 968.112 1172.95 963.121 1195.26 952.837 1200.18 C 925.564 1213.23 923.092 1181.1 905.152 1177.23 C 888.271 1173.59 882.74 1194.94 873.452 1199.79 C 846.425 1213.94 842.631 1180.23 823.964 1176.65 C 813.652 1174.68 808.068 1185.08 800.191 1190.95 L 799.222 1189.76 C 800.75 1181.32 813.292 1174.5 821.386 1173.28 z"/>
<path transform="translate(0,0)" fill="rgb(201,170,183)" d="M 975.197 1144.01 C 979.855 1143.78 984.889 1144.01 989.579 1144.11 C 1003.04 1151.83 1007.54 1170.84 1023.19 1169.86 C 1040.54 1168.77 1041.77 1143.68 1061.04 1143.46 C 1076.23 1143.28 1080.82 1156.59 1090.69 1165.27 C 1105.1 1178.77 1116.29 1160.73 1121.36 1160.26 C 1119.47 1168.75 1108.7 1172.4 1101.19 1173.44 C 1079.31 1168.8 1082.74 1155.8 1068.82 1148.55 C 1048.94 1138.19 1042.63 1168.97 1026.66 1172.65 C 1004.53 1177.74 1001.72 1154.31 989.871 1148.64 C 967.664 1138.01 964.122 1168.72 947.692 1172.69 C 924.685 1178.25 921.479 1153.93 909.742 1148.68 C 887.203 1138.58 884.353 1169.09 867.403 1172.84 C 845.108 1177.76 843.415 1155.94 829.892 1148.55 C 814.265 1140.02 803.523 1160.22 800.598 1161.09 L 799.418 1160.02 C 799.862 1154.27 811.217 1146.5 816.134 1144.07 C 848.648 1142.74 835.489 1162.67 859.82 1169.76 C 879.388 1175.46 884.492 1136.9 907.664 1144.06 C 920.672 1146.94 926.122 1167.78 938.82 1169.81 C 955.749 1172.52 961.963 1151.78 975.197 1144.01 z"/>
<path transform="translate(0,0)" fill="rgb(201,170,183)" d="M 820.329 1203.22 C 845.651 1205.24 839.047 1222.34 857.428 1229.19 C 874.403 1235.52 882.004 1209.72 892.228 1205.48 C 918.882 1194.42 921.817 1224 937.133 1228.94 C 953.572 1234.23 962.466 1209.92 975.297 1204.58 C 998.257 1195.03 1002.33 1224.78 1017.42 1228.9 C 1034.77 1233.64 1041.33 1210.52 1052.18 1205.47 C 1077.98 1193.47 1080.5 1223.36 1097.47 1228.93 C 1109.64 1232.93 1114.86 1222.27 1120.39 1219.33 L 1122.05 1221.54 C 1119.57 1229.39 1105.43 1233.12 1097.68 1232.57 C 1079.45 1226.93 1078.83 1205.5 1059.81 1206.05 C 1044.3 1206.5 1041.18 1232.57 1023.22 1233.06 C 1001.64 1233.64 1000.62 1204.69 980.198 1206.32 C 964.086 1207.61 961.183 1232.95 943.547 1232.91 C 921.363 1234.29 921.121 1204.07 899.717 1206.39 C 882.114 1208.84 883.816 1231.39 864.685 1233.43 C 840.238 1236.04 839.869 1198.56 814.319 1207.64 C 808.086 1209.86 805.843 1218.68 799.289 1219.38 C 801.413 1210.81 812.169 1204.92 820.329 1203.22 z"/>
<path transform="translate(0,0)" fill="rgb(201,170,183)" d="M 616.606 1938 C 618.743 1937.96 617.661 1937.73 619.793 1938.93 C 621.195 1951.18 620.839 2035.77 618.393 2045.99 C 615.537 2040.05 616.924 1955.12 617.018 1941.62 C 605.916 1945.41 593.941 1950.11 582.866 1954.22 L 582.555 2011.27 C 582.534 2021.29 582.962 2035.75 582.009 2045.47 L 581.196 2045.97 C 579.237 2041.06 579.663 2038.76 579.754 2033.5 C 579.84 2007.33 579.605 1981.16 579.051 1955 C 569.198 1958.16 558.538 1962.34 548.757 1965.95 L 548.592 2006.5 C 548.658 2019.53 549.994 2033.25 547.114 2045.89 L 546.511 2045.38 C 544.781 2023.25 545.802 1987.14 545.788 1964.12 C 567.699 1954.93 594.073 1946.08 616.606 1938 z"/>
<path transform="translate(0,0)" fill="none" d="M 892.188 896.639 C 907.095 896.542 943.511 906.831 959.484 910.939 C 946.522 911.609 931.903 911.675 918.745 912.114 C 909.381 911.291 876.926 911.935 871.926 910.719 C 879.646 908.392 898.54 912.277 905.217 908.165 L 905.012 906.515 C 899.542 905.991 900.529 907.704 896.159 905.591 C 895.167 901.444 894.528 900.211 892.188 896.639 z"/>
<path transform="translate(0,0)" fill="rgb(201,170,183)" d="M 1127.46 388.066 C 1133.6 387.927 1160.16 386.008 1162.75 389.704 C 1158.97 393.976 1135.46 388.261 1126.6 392.228 C 1124.86 395.467 1124.61 398.916 1124.78 402.231 C 1126.01 426.673 1118.58 435.785 1149.7 433.091 C 1153.16 432.791 1161.42 432.877 1165.28 432.807 C 1172.67 426.75 1166.44 416.577 1170.51 410.875 L 1171.66 411.254 L 1170.99 410.706 C 1173.19 414.352 1172.33 429.824 1170.15 433.568 C 1162.76 437.336 1130.41 438.097 1124.76 433.826 C 1119.71 425.07 1121.38 405.72 1122.08 395.488 C 1122.37 391.249 1124.56 390.229 1127.46 388.066 z"/>
<path transform="translate(0,0)" fill="rgb(201,170,183)" d="M 1176.77 386.886 C 1177.33 387.583 1177.41 388.405 1177.69 389.388 C 1175.41 393.606 1152.69 417.771 1147.68 423.319 C 1143.37 419.131 1138.89 414.313 1134.68 409.959 C 1133.38 407.834 1133.73 408.702 1133.42 406.185 L 1135.02 405.846 C 1139.74 408.918 1143.56 413.093 1147.54 417.092 C 1156.05 407.635 1167.27 395.044 1176.77 386.886 z"/>
</g>
</svg>